<svg width="246.000000" height="36.000000" viewBox="0 0 246 36" fill="none" xmlns="http://www.w3.org/2000/svg" xmlns:xlink="http://www.w3.org/1999/xlink">
	<desc>
			Created with Pixso.
	</desc>
	<defs/>
	<path id="Vector" d="M20.81 31.94L20.25 31.94C20.25 31.93 20.25 31.93 20.24 31.92L20.23 31.85C20.22 31.81 20.21 31.76 20.2 31.72C20.19 31.7 20.19 31.68 20.18 31.65C20.17 31.6 20.15 31.54 20.14 31.48L20.13 31.46C20.11 31.4 20.1 31.33 20.08 31.27L20.06 31.21C20.05 31.17 20.03 31.12 20.02 31.08C20.01 31.06 20 31.03 20 31.01C19.98 30.97 19.97 30.93 19.95 30.89C19.95 30.87 19.94 30.84 19.93 30.82C19.91 30.77 19.89 30.72 19.87 30.67C19.87 30.66 19.87 30.65 19.86 30.64C19.84 30.58 19.81 30.52 19.79 30.46C19.78 30.44 19.77 30.41 19.76 30.39C19.75 30.36 19.73 30.31 19.71 30.27L19.68 30.2C19.66 30.17 19.65 30.13 19.63 30.09C19.62 30.07 19.61 30.04 19.6 30.02C19.58 29.98 19.56 29.93 19.54 29.89C19.53 29.88 19.52 29.86 19.51 29.84C19.48 29.79 19.45 29.73 19.43 29.68L19.39 29.61L19.33 29.51L19.29 29.43C19.27 29.4 19.25 29.37 19.23 29.34C19.22 29.31 19.2 29.29 19.19 29.26C19.17 29.23 19.15 29.19 19.13 29.16L19.07 29.07C19.04 29.03 19.01 28.99 18.99 28.94C18.97 28.92 18.95 28.89 18.93 28.87C18.92 28.84 18.9 28.81 18.88 28.78C18.86 28.76 18.84 28.73 18.82 28.7C18.8 28.67 18.79 28.65 18.77 28.63C18.75 28.6 18.73 28.57 18.71 28.54L18.65 28.47C18.61 28.42 18.58 28.37 18.54 28.32L18.48 28.25C18.46 28.22 18.44 28.19 18.41 28.17L18.36 28.1C18.34 28.07 18.31 28.05 18.29 28.02L18.24 27.96L18.16 27.87L18.11 27.82C18.02 27.72 17.92 27.61 17.82 27.52L17.78 27.47L17.69 27.38L17.65 27.34C17.61 27.31 17.58 27.28 17.55 27.25L17.52 27.22C17.41 27.12 17.29 27.02 17.17 26.92L17.14 26.89C17.11 26.86 17.07 26.83 17.03 26.81L17 26.78C16.96 26.75 16.92 26.72 16.88 26.69L16.86 26.67C16.74 26.57 16.6 26.48 16.47 26.39L16.45 26.37C16.41 26.34 16.37 26.31 16.32 26.29L16.3 26.27C16.25 26.24 16.21 26.21 16.16 26.18L16.16 26.18C16.01 26.09 15.86 26 15.71 25.91L15.71 25.91C15.66 25.88 15.61 25.86 15.56 25.83L15.54 25.82C15.29 25.69 15.03 25.56 14.76 25.45L14.74 25.44C14.67 25.41 14.6 25.38 14.53 25.35L15.94 25.35C16.17 25.35 16.36 25.1 16.36 24.79C16.36 24.48 16.17 24.23 15.94 24.23L15.52 24.23C15.55 24.17 15.58 24.1 15.61 24.02C16.01 23.78 16.71 23.28 17.4 22.36L17.41 22.35C17.46 22.28 17.51 22.21 17.56 22.14L17.57 22.12C17.62 22.05 17.67 21.98 17.72 21.9L17.74 21.88C17.76 21.84 17.78 21.8 17.81 21.77C17.81 21.77 17.81 21.76 17.81 21.76C17.83 21.73 17.86 21.68 17.88 21.64L17.9 21.62C17.92 21.58 17.94 21.55 17.96 21.51C17.96 21.51 17.97 21.5 17.97 21.49C17.99 21.45 18.02 21.41 18.04 21.37L18.06 21.34C18.08 21.31 18.09 21.27 18.11 21.24C18.12 21.23 18.12 21.22 18.13 21.21C18.15 21.17 18.17 21.12 18.19 21.08L18.21 21.05C18.23 21.01 18.25 20.98 18.26 20.94L18.28 20.9C18.3 20.86 18.32 20.82 18.34 20.77L18.36 20.74C18.37 20.7 18.39 20.67 18.41 20.63L18.43 20.58C18.45 20.54 18.47 20.49 18.49 20.45C18.49 20.44 18.49 20.43 18.5 20.42C18.52 20.38 18.53 20.34 18.55 20.29L18.57 20.24C18.59 20.2 18.6 20.16 18.62 20.12L18.63 20.09C18.65 20.04 18.67 19.99 18.68 19.94L18.7 19.89C18.72 19.85 18.73 19.81 18.75 19.76C18.75 19.75 18.76 19.73 18.76 19.72C18.78 19.67 18.8 19.62 18.81 19.56C18.82 19.54 18.82 19.53 18.83 19.51L18.87 19.38C18.87 19.37 18.88 19.35 18.88 19.33C18.9 19.28 18.92 19.22 18.93 19.17C18.94 19.15 18.94 19.13 18.95 19.11C18.96 19.07 18.97 19.03 18.98 18.98C18.99 18.96 18.99 18.94 19 18.92C19.01 18.87 19.03 18.81 19.04 18.75L19.05 18.7C19.06 18.65 19.08 18.61 19.09 18.56L19.1 18.49C19.11 18.43 19.13 18.37 19.14 18.31C19.14 18.3 19.14 18.29 19.15 18.27C19.16 18.22 19.17 18.17 19.18 18.11C19.18 18.09 19.19 18.07 19.19 18.04C19.2 17.99 19.21 17.93 19.22 17.88C19.22 17.86 19.23 17.85 19.23 17.84C19.24 17.78 19.25 17.71 19.26 17.64C19.26 17.62 19.27 17.6 19.27 17.57C19.28 17.52 19.29 17.47 19.29 17.41L19.3 17.36C19.31 17.29 19.32 17.22 19.33 17.15C19.33 17.13 19.33 17.11 19.34 17.08C19.34 17.03 19.35 16.97 19.36 16.92C19.36 16.9 19.36 16.88 19.36 16.86C19.37 16.78 19.38 16.71 19.38 16.64C19.38 16.62 19.39 16.6 19.39 16.57C19.39 16.52 19.4 16.46 19.4 16.4C19.4 16.37 19.41 16.35 19.41 16.33C19.41 16.25 19.42 16.18 19.42 16.1C19.42 16.08 19.42 16.06 19.43 16.05C19.43 15.98 19.43 15.92 19.44 15.85C19.44 15.83 19.44 15.8 19.44 15.78C19.44 15.7 19.45 15.62 19.45 15.54C19.45 15.53 19.45 15.52 19.45 15.5C19.45 15.43 19.45 15.36 19.45 15.28C19.45 15.26 19.45 15.23 19.45 15.21C19.45 15.13 19.45 15.05 19.45 14.97L19.45 14.95C19.45 14.86 19.45 14.78 19.45 14.69L19.45 14.61C19.45 14.54 19.45 14.46 19.45 14.38L19.45 14.34C19.45 14.25 19.44 14.16 19.44 14.07C19.44 14.04 19.44 14.02 19.44 14C19.43 13.92 19.43 13.84 19.42 13.76C19.42 13.75 19.42 13.73 19.42 13.71C19.41 13.61 19.41 13.52 19.4 13.42L19.4 13.36C19.39 13.28 19.39 13.2 19.38 13.12C19.38 13.09 19.38 13.07 19.37 13.05C19.37 12.95 19.36 12.85 19.35 12.75C19.35 12.73 19.34 12.72 19.34 12.7C19.33 12.61 19.32 12.53 19.31 12.44C19.31 12.42 19.31 12.39 19.31 12.37C19.29 12.26 19.28 12.16 19.27 12.06C19.27 12.04 19.27 12.03 19.27 12.02C19.25 11.93 19.24 11.83 19.23 11.74C19.23 11.71 19.22 11.68 19.22 11.66C19.2 11.55 19.19 11.44 19.17 11.34C17.59 0.68 6.4 2.41 6.4 2.41L6.76 4.7L0 11.48L0.29 14.09L2.85 15.59C2.97 15.31 3.12 15.05 3.29 14.81C4.95 13 8.15 11.58 9.07 11.28C9.26 11.23 9.36 11.2 9.36 11.2C4.97 16.59 5.47 22.76 5.66 24.24C5.46 24.27 5.3 24.51 5.3 24.79C5.3 25.1 5.49 25.35 5.72 25.35L7.13 25.35C4.78 26.29 2.92 28.06 1.94 30.29C1.94 30.3 1.94 30.3 1.94 30.3C1.87 30.47 1.8 30.64 1.74 30.81C1.74 30.81 1.74 30.81 1.74 30.81C1.72 30.86 1.71 30.9 1.69 30.95C1.68 30.97 1.68 30.98 1.67 31C1.66 31.04 1.65 31.09 1.63 31.13C1.63 31.15 1.62 31.17 1.61 31.19C1.6 31.23 1.59 31.27 1.58 31.32L1.56 31.39C1.54 31.43 1.53 31.47 1.52 31.51C1.52 31.53 1.51 31.56 1.5 31.59C1.49 31.63 1.48 31.66 1.47 31.7C1.46 31.74 1.45 31.78 1.45 31.82C1.44 31.86 1.43 31.9 1.42 31.95L0.85 31.95C0.75 31.94 0.64 31.96 0.54 32C0.44 32.04 0.34 32.09 0.27 32.17C0.19 32.24 0.13 32.32 0.09 32.42C0.04 32.51 0.02 32.61 0.02 32.72C0.02 32.82 0.04 32.92 0.09 33.02C0.13 33.11 0.19 33.2 0.27 33.27C0.34 33.34 0.44 33.4 0.54 33.43C0.64 33.47 0.75 33.49 0.85 33.49L20.82 33.49C20.93 33.49 21.03 33.47 21.14 33.43C21.24 33.4 21.33 33.34 21.41 33.27C21.48 33.2 21.54 33.11 21.59 33.02C21.63 32.92 21.65 32.82 21.65 32.72C21.65 32.61 21.63 32.51 21.59 32.42C21.54 32.32 21.48 32.24 21.41 32.17C21.33 32.09 21.24 32.04 21.14 32C21.03 31.96 20.93 31.94 20.82 31.95L20.81 31.94Z" fill="#595653" fill-opacity="1.000000" fill-rule="nonzero"/>
	<path id="Vector" d="M44.2 31.94L43.64 31.94C43.64 31.93 43.63 31.93 43.63 31.92L43.62 31.85C43.61 31.81 43.6 31.76 43.58 31.72C43.58 31.7 43.57 31.68 43.57 31.65C43.56 31.6 43.54 31.54 43.52 31.48L43.52 31.46C43.5 31.4 43.48 31.33 43.46 31.27L43.45 31.21C43.43 31.17 43.42 31.12 43.41 31.08C43.4 31.06 43.39 31.03 43.38 31.01C43.37 30.97 43.36 30.93 43.34 30.89C43.33 30.87 43.33 30.84 43.32 30.82C43.3 30.77 43.28 30.72 43.26 30.67C43.26 30.66 43.25 30.65 43.25 30.64C43.23 30.58 43.2 30.52 43.18 30.46C43.17 30.44 43.16 30.41 43.15 30.39C43.13 30.36 43.12 30.31 43.1 30.27L43.07 30.2C43.05 30.17 43.03 30.13 43.02 30.09C43.01 30.07 43 30.04 42.98 30.02C42.96 29.98 42.95 29.93 42.92 29.89C42.91 29.88 42.91 29.86 42.9 29.84C42.87 29.79 42.84 29.73 42.81 29.68L42.77 29.61L42.72 29.51L42.67 29.43C42.66 29.4 42.64 29.37 42.62 29.34C42.6 29.31 42.59 29.29 42.57 29.26C42.55 29.23 42.54 29.19 42.51 29.16L42.46 29.07C42.43 29.03 42.4 28.99 42.37 28.94C42.36 28.92 42.34 28.89 42.32 28.87C42.3 28.84 42.28 28.81 42.27 28.78C42.25 28.76 42.23 28.73 42.21 28.7C42.19 28.67 42.17 28.65 42.15 28.63C42.14 28.6 42.11 28.57 42.09 28.54L42.04 28.47C42 28.42 41.96 28.37 41.92 28.32L41.87 28.25C41.85 28.22 41.82 28.19 41.8 28.17L41.75 28.1C41.72 28.07 41.7 28.05 41.68 28.02L41.62 27.96L41.55 27.87L41.5 27.82C41.41 27.72 41.31 27.61 41.21 27.52L41.17 27.47L41.08 27.38L41.03 27.34C41 27.31 40.97 27.28 40.94 27.25L40.91 27.22C40.79 27.12 40.68 27.02 40.56 26.92L40.53 26.89C40.49 26.86 40.46 26.83 40.42 26.81L40.38 26.78C40.34 26.75 40.31 26.72 40.27 26.69L40.25 26.67C40.12 26.57 39.99 26.48 39.86 26.39L39.84 26.37C39.8 26.34 39.75 26.31 39.71 26.29L39.68 26.27C39.64 26.24 39.6 26.21 39.55 26.18L39.54 26.18C39.4 26.09 39.25 26 39.1 25.91L39.09 25.91C39.05 25.88 39 25.86 38.95 25.83L38.93 25.82C38.68 25.69 38.41 25.56 38.15 25.45L38.13 25.44C38.06 25.41 37.99 25.38 37.92 25.35L39.33 25.35C39.56 25.35 39.75 25.1 39.75 24.79C39.75 24.48 39.56 24.23 39.33 24.23L38.91 24.23C38.93 24.17 38.96 24.1 39 24.02C39.39 23.78 40.09 23.28 40.79 22.36L40.79 22.35C40.85 22.28 40.9 22.21 40.95 22.14L40.96 22.12C41.01 22.05 41.06 21.98 41.11 21.9L41.12 21.88C41.15 21.84 41.17 21.8 41.19 21.77C41.19 21.77 41.19 21.76 41.2 21.76C41.22 21.73 41.25 21.68 41.27 21.64L41.28 21.62C41.31 21.58 41.33 21.55 41.35 21.51C41.35 21.51 41.35 21.5 41.36 21.49C41.38 21.45 41.4 21.41 41.43 21.37L41.44 21.34C41.46 21.31 41.48 21.27 41.5 21.24C41.5 21.23 41.51 21.22 41.52 21.21C41.54 21.17 41.56 21.12 41.58 21.08L41.6 21.05C41.61 21.01 41.63 20.98 41.65 20.94L41.67 20.9C41.69 20.86 41.71 20.82 41.73 20.77L41.74 20.74C41.76 20.7 41.78 20.67 41.8 20.63L41.82 20.58C41.84 20.54 41.86 20.49 41.87 20.45C41.88 20.44 41.88 20.43 41.88 20.42C41.9 20.38 41.92 20.34 41.94 20.29L41.96 20.24C41.97 20.2 41.99 20.16 42.01 20.12L42.02 20.09C42.04 20.04 42.05 19.99 42.07 19.94L42.09 19.89C42.11 19.85 42.12 19.81 42.13 19.76C42.14 19.75 42.14 19.73 42.15 19.72C42.17 19.67 42.18 19.62 42.2 19.56C42.21 19.54 42.21 19.53 42.22 19.51L42.26 19.38C42.26 19.37 42.27 19.35 42.27 19.33C42.29 19.28 42.3 19.22 42.32 19.17C42.32 19.15 42.33 19.13 42.33 19.11C42.35 19.07 42.36 19.03 42.37 18.98C42.37 18.96 42.38 18.94 42.39 18.92C42.4 18.87 42.41 18.81 42.43 18.75L42.44 18.7C42.45 18.65 42.46 18.61 42.47 18.56L42.49 18.49C42.5 18.43 42.51 18.37 42.53 18.31C42.53 18.3 42.53 18.29 42.53 18.27C42.55 18.22 42.56 18.17 42.57 18.11C42.57 18.09 42.57 18.07 42.58 18.04C42.59 17.99 42.6 17.93 42.61 17.88C42.61 17.86 42.61 17.85 42.62 17.84C42.63 17.78 42.64 17.71 42.65 17.64C42.65 17.62 42.65 17.6 42.66 17.57C42.67 17.52 42.67 17.47 42.68 17.41L42.69 17.36C42.7 17.29 42.71 17.22 42.72 17.15C42.72 17.13 42.72 17.11 42.72 17.08C42.73 17.03 42.74 16.97 42.74 16.92C42.75 16.9 42.75 16.88 42.75 16.86C42.76 16.78 42.76 16.71 42.77 16.64C42.77 16.62 42.77 16.6 42.78 16.57C42.78 16.52 42.79 16.46 42.79 16.4C42.79 16.37 42.79 16.35 42.8 16.33C42.8 16.25 42.81 16.18 42.81 16.1C42.81 16.08 42.81 16.06 42.81 16.05C42.82 15.98 42.82 15.92 42.82 15.85C42.82 15.83 42.82 15.8 42.83 15.78C42.83 15.7 42.83 15.62 42.84 15.54C42.84 15.53 42.84 15.52 42.84 15.5C42.84 15.43 42.84 15.36 42.84 15.28C42.84 15.26 42.84 15.23 42.84 15.21C42.84 15.13 42.84 15.05 42.84 14.97L42.84 14.95C42.84 14.86 42.84 14.78 42.84 14.69L42.84 14.61C42.84 14.54 42.84 14.46 42.84 14.38L42.84 14.34C42.83 14.25 42.83 14.16 42.83 14.07C42.83 14.04 42.82 14.02 42.82 14C42.82 13.92 42.82 13.84 42.81 13.76C42.81 13.75 42.81 13.73 42.81 13.71C42.8 13.61 42.8 13.52 42.79 13.42L42.78 13.36C42.78 13.28 42.77 13.2 42.77 13.12C42.77 13.09 42.76 13.07 42.76 13.05C42.75 12.95 42.74 12.85 42.73 12.75C42.73 12.73 42.73 12.72 42.73 12.7C42.72 12.61 42.71 12.53 42.7 12.44C42.7 12.42 42.7 12.39 42.69 12.37C42.68 12.26 42.67 12.16 42.66 12.06C42.66 12.04 42.65 12.03 42.65 12.02C42.64 11.93 42.63 11.83 42.62 11.74C42.61 11.71 42.61 11.68 42.61 11.66C42.59 11.55 42.58 11.44 42.56 11.34C40.98 0.68 29.79 2.41 29.79 2.41L30.15 4.7L23.38 11.48L23.68 14.09L26.24 15.59C26.36 15.31 26.5 15.05 26.68 14.81C28.33 13 31.54 11.58 32.46 11.28C32.64 11.23 32.75 11.2 32.75 11.2C28.35 16.59 28.85 22.76 29.05 24.24C28.85 24.27 28.69 24.51 28.69 24.79C28.69 25.1 28.88 25.35 29.11 25.35L30.52 25.35C28.17 26.29 26.3 28.06 25.33 30.29C25.33 30.3 25.33 30.3 25.33 30.3C25.25 30.47 25.19 30.64 25.13 30.81C25.13 30.81 25.13 30.81 25.13 30.81C25.11 30.86 25.09 30.9 25.08 30.95C25.07 30.97 25.07 30.98 25.06 31C25.05 31.04 25.03 31.09 25.02 31.13C25.01 31.15 25.01 31.17 25 31.19C24.99 31.23 24.98 31.27 24.96 31.32L24.94 31.39C24.93 31.43 24.92 31.47 24.91 31.51C24.9 31.53 24.9 31.56 24.89 31.59C24.88 31.63 24.87 31.66 24.86 31.7C24.85 31.74 24.84 31.78 24.83 31.82C24.82 31.86 24.81 31.9 24.8 31.95L24.24 31.95C24.13 31.94 24.02 31.96 23.92 32C23.82 32.04 23.73 32.09 23.65 32.17C23.58 32.24 23.51 32.32 23.47 32.42C23.43 32.51 23.41 32.61 23.41 32.72C23.41 32.82 23.43 32.92 23.47 33.02C23.51 33.11 23.58 33.2 23.65 33.27C23.73 33.34 23.82 33.4 23.92 33.43C24.02 33.47 24.13 33.49 24.24 33.49L44.21 33.49C44.31 33.49 44.42 33.47 44.52 33.43C44.62 33.4 44.72 33.34 44.79 33.27C44.87 33.2 44.93 33.11 44.97 33.02C45.02 32.92 45.04 32.82 45.04 32.72C45.04 32.61 45.02 32.51 44.97 32.42C44.93 32.32 44.87 32.24 44.79 32.17C44.72 32.09 44.62 32.04 44.52 32C44.42 31.96 44.31 31.94 44.21 31.95L44.2 31.94Z" fill="#595653" fill-opacity="1.000000" fill-rule="nonzero"/>
	<path id="Vector" d="M67.59 31.94L67.02 31.94C67.02 31.93 67.02 31.93 67.02 31.92L67 31.85C66.99 31.81 66.98 31.76 66.97 31.72C66.97 31.7 66.96 31.68 66.96 31.65C66.94 31.6 66.93 31.54 66.91 31.48L66.91 31.46C66.89 31.4 66.87 31.33 66.85 31.27L66.83 31.21C66.82 31.17 66.81 31.12 66.79 31.08C66.79 31.06 66.78 31.03 66.77 31.01C66.76 30.97 66.74 30.93 66.73 30.89C66.72 30.87 66.71 30.84 66.71 30.82C66.69 30.77 66.67 30.72 66.65 30.67C66.64 30.66 66.64 30.65 66.64 30.64C66.61 30.58 66.59 30.52 66.57 30.46C66.56 30.44 66.55 30.41 66.54 30.39C66.52 30.36 66.51 30.31 66.49 30.27L66.46 30.2C66.44 30.17 66.42 30.13 66.41 30.09C66.39 30.07 66.38 30.04 66.37 30.02C66.35 29.98 66.33 29.93 66.31 29.89C66.3 29.88 66.29 29.86 66.29 29.84C66.26 29.79 66.23 29.73 66.2 29.68L66.16 29.61L66.11 29.51L66.06 29.43C66.04 29.4 66.03 29.37 66.01 29.34C65.99 29.31 65.98 29.29 65.96 29.26C65.94 29.23 65.92 29.19 65.9 29.16L65.84 29.07C65.82 29.03 65.79 28.99 65.76 28.94C65.74 28.92 65.73 28.89 65.71 28.87C65.69 28.84 65.67 28.81 65.65 28.78C65.63 28.76 65.61 28.73 65.6 28.7C65.58 28.67 65.56 28.65 65.54 28.63C65.52 28.6 65.5 28.57 65.48 28.54L65.43 28.47C65.39 28.42 65.35 28.37 65.31 28.32L65.26 28.25C65.24 28.22 65.21 28.19 65.19 28.17L65.14 28.1C65.11 28.07 65.09 28.05 65.06 28.02L65.01 27.96L64.94 27.87L64.89 27.82C64.8 27.72 64.7 27.61 64.6 27.52L64.56 27.47L64.47 27.38L64.42 27.34C64.39 27.31 64.36 27.28 64.33 27.25L64.29 27.22C64.18 27.12 64.07 27.02 63.95 26.92L63.92 26.89C63.88 26.86 63.85 26.83 63.81 26.81L63.77 26.78C63.73 26.75 63.7 26.72 63.66 26.69L63.64 26.67C63.51 26.57 63.38 26.48 63.24 26.39L63.23 26.37C63.18 26.34 63.14 26.31 63.1 26.29L63.07 26.27C63.03 26.24 62.98 26.21 62.94 26.18L62.93 26.18C62.79 26.09 62.64 26 62.49 25.91L62.48 25.91C62.43 25.88 62.39 25.86 62.34 25.83L62.32 25.82C62.06 25.69 61.8 25.56 61.53 25.45L61.52 25.44C61.45 25.41 61.38 25.38 61.3 25.35L62.72 25.35C62.95 25.35 63.13 25.1 63.13 24.79C63.13 24.48 62.95 24.23 62.72 24.23L62.3 24.23C62.32 24.17 62.35 24.1 62.38 24.02C62.78 23.78 63.48 23.28 64.18 22.36L64.18 22.35C64.23 22.28 64.29 22.21 64.34 22.14L64.35 22.12C64.4 22.05 64.45 21.98 64.5 21.9L64.51 21.88C64.53 21.84 64.56 21.8 64.58 21.77C64.58 21.77 64.58 21.76 64.58 21.76C64.61 21.73 64.63 21.68 64.66 21.64L64.67 21.62C64.69 21.58 64.71 21.55 64.73 21.51C64.74 21.51 64.74 21.5 64.75 21.49C64.77 21.45 64.79 21.41 64.82 21.37L64.83 21.34C64.85 21.31 64.87 21.27 64.89 21.24C64.89 21.23 64.9 21.22 64.9 21.21C64.93 21.17 64.95 21.12 64.97 21.08L64.98 21.05C65 21.01 65.02 20.98 65.04 20.94L65.06 20.9C65.08 20.86 65.1 20.82 65.12 20.77L65.13 20.74C65.15 20.7 65.17 20.67 65.18 20.63L65.2 20.58C65.22 20.54 65.24 20.49 65.26 20.45C65.27 20.44 65.27 20.43 65.27 20.42C65.29 20.38 65.31 20.34 65.33 20.29L65.34 20.24C65.36 20.2 65.38 20.16 65.39 20.12L65.4 20.09C65.42 20.04 65.44 19.99 65.46 19.94L65.48 19.89C65.49 19.85 65.51 19.81 65.52 19.76C65.53 19.75 65.53 19.73 65.54 19.72C65.55 19.67 65.57 19.62 65.59 19.56C65.59 19.54 65.6 19.53 65.6 19.51L65.64 19.38C65.65 19.37 65.65 19.35 65.66 19.33C65.68 19.28 65.69 19.22 65.71 19.17C65.71 19.15 65.72 19.13 65.72 19.11C65.73 19.07 65.75 19.03 65.76 18.98C65.76 18.96 65.77 18.94 65.77 18.92C65.79 18.87 65.8 18.81 65.82 18.75L65.83 18.7C65.84 18.65 65.85 18.61 65.86 18.56L65.87 18.49C65.89 18.43 65.9 18.37 65.91 18.31C65.92 18.3 65.92 18.29 65.92 18.27C65.93 18.22 65.94 18.17 65.95 18.11C65.96 18.09 65.96 18.07 65.97 18.04C65.98 17.99 65.99 17.93 66 17.88C66 17.86 66 17.85 66 17.84C66.01 17.78 66.02 17.71 66.04 17.64C66.04 17.62 66.04 17.6 66.05 17.57C66.05 17.52 66.06 17.47 66.07 17.41L66.08 17.36C66.09 17.29 66.1 17.22 66.1 17.15C66.11 17.13 66.11 17.11 66.11 17.08C66.12 17.03 66.12 16.97 66.13 16.92C66.13 16.9 66.14 16.88 66.14 16.86C66.15 16.78 66.15 16.71 66.16 16.64C66.16 16.62 66.16 16.6 66.16 16.57C66.17 16.52 66.17 16.46 66.18 16.4C66.18 16.37 66.18 16.35 66.18 16.33C66.19 16.25 66.19 16.18 66.2 16.1C66.2 16.08 66.2 16.06 66.2 16.05C66.21 15.98 66.21 15.92 66.21 15.85C66.21 15.83 66.21 15.8 66.21 15.78C66.22 15.7 66.22 15.62 66.22 15.54C66.22 15.53 66.22 15.52 66.22 15.5C66.23 15.43 66.23 15.36 66.23 15.28C66.23 15.26 66.23 15.23 66.23 15.21C66.23 15.13 66.23 15.05 66.23 14.97L66.23 14.95C66.23 14.86 66.23 14.78 66.23 14.69L66.23 14.61C66.23 14.54 66.23 14.46 66.22 14.38L66.22 14.34C66.22 14.25 66.22 14.16 66.21 14.07C66.21 14.04 66.21 14.02 66.21 14C66.21 13.92 66.2 13.84 66.2 13.76C66.2 13.75 66.2 13.73 66.2 13.71C66.19 13.61 66.18 13.52 66.18 13.42L66.17 13.36C66.17 13.28 66.16 13.2 66.15 13.12C66.15 13.09 66.15 13.07 66.15 13.05C66.14 12.95 66.13 12.85 66.12 12.75C66.12 12.73 66.12 12.72 66.12 12.7C66.11 12.61 66.1 12.53 66.09 12.44C66.09 12.42 66.08 12.39 66.08 12.37C66.07 12.26 66.06 12.16 66.05 12.06C66.05 12.04 66.04 12.03 66.04 12.02C66.03 11.93 66.02 11.83 66 11.74C66 11.71 66 11.68 65.99 11.66C65.98 11.55 65.96 11.44 65.95 11.34C64.37 0.68 53.18 2.41 53.18 2.41L53.54 4.7L46.77 11.48L47.07 14.09L49.63 15.59C49.74 15.31 49.89 15.05 50.07 14.81C51.72 13 54.93 11.58 55.85 11.28C56.03 11.23 56.14 11.2 56.14 11.2C51.74 16.59 52.24 22.76 52.44 24.24C52.23 24.27 52.08 24.51 52.08 24.79C52.08 25.1 52.26 25.35 52.49 25.35L53.91 25.35C51.56 26.29 49.69 28.06 48.72 30.29C48.72 30.3 48.72 30.3 48.71 30.3C48.64 30.47 48.58 30.64 48.51 30.81C48.51 30.81 48.51 30.81 48.51 30.81C48.5 30.86 48.48 30.9 48.47 30.95C48.46 30.97 48.45 30.98 48.45 31C48.43 31.04 48.42 31.09 48.41 31.13C48.4 31.15 48.39 31.17 48.39 31.19C48.38 31.23 48.36 31.27 48.35 31.32L48.33 31.39C48.32 31.43 48.31 31.47 48.3 31.51C48.29 31.53 48.28 31.56 48.28 31.59C48.27 31.63 48.26 31.66 48.25 31.7C48.24 31.74 48.23 31.78 48.22 31.82C48.21 31.86 48.2 31.9 48.19 31.95L47.63 31.95C47.52 31.94 47.41 31.96 47.31 32C47.21 32.04 47.12 32.09 47.04 32.17C46.96 32.24 46.9 32.32 46.86 32.42C46.82 32.51 46.8 32.61 46.8 32.72C46.8 32.82 46.82 32.92 46.86 33.02C46.9 33.11 46.96 33.2 47.04 33.27C47.12 33.34 47.21 33.4 47.31 33.43C47.41 33.47 47.52 33.49 47.63 33.49L67.59 33.49C67.7 33.49 67.81 33.47 67.91 33.43C68.01 33.4 68.1 33.34 68.18 33.27C68.26 33.2 68.32 33.11 68.36 33.02C68.4 32.92 68.42 32.82 68.42 32.72C68.42 32.61 68.4 32.51 68.36 32.42C68.32 32.32 68.26 32.24 68.18 32.17C68.1 32.09 68.01 32.04 67.91 32C67.81 31.96 67.7 31.94 67.59 31.95L67.59 31.94Z" fill="#595653" fill-opacity="1.000000" fill-rule="nonzero"/>
	<path id="Vector" d="M90.97 31.94L90.41 31.94C90.41 31.93 90.41 31.93 90.41 31.92L90.39 31.85C90.38 31.81 90.37 31.76 90.36 31.72C90.35 31.7 90.35 31.68 90.34 31.65C90.33 31.6 90.31 31.54 90.3 31.48L90.29 31.46C90.28 31.4 90.26 31.33 90.24 31.27L90.22 31.21C90.21 31.17 90.19 31.12 90.18 31.08C90.17 31.06 90.17 31.03 90.16 31.01C90.14 30.97 90.13 30.93 90.12 30.89C90.11 30.87 90.1 30.84 90.09 30.82C90.07 30.77 90.06 30.72 90.04 30.67C90.03 30.66 90.03 30.65 90.02 30.64C90 30.58 89.98 30.52 89.95 30.46C89.94 30.44 89.93 30.41 89.93 30.39C89.91 30.36 89.89 30.31 89.88 30.27L89.84 30.2C89.83 30.17 89.81 30.13 89.79 30.09C89.78 30.07 89.77 30.04 89.76 30.02C89.74 29.98 89.72 29.93 89.7 29.89C89.69 29.88 89.68 29.86 89.67 29.84C89.65 29.79 89.62 29.73 89.59 29.68L89.55 29.61L89.49 29.51L89.45 29.43C89.43 29.4 89.41 29.37 89.39 29.34C89.38 29.31 89.36 29.29 89.35 29.26C89.33 29.23 89.31 29.19 89.29 29.16L89.23 29.07C89.2 29.03 89.18 28.99 89.15 28.94C89.13 28.92 89.11 28.89 89.1 28.87C89.08 28.84 89.06 28.81 89.04 28.78C89.02 28.76 89 28.73 88.98 28.7C88.97 28.67 88.95 28.65 88.93 28.63C88.91 28.6 88.89 28.57 88.87 28.54L88.81 28.47C88.77 28.42 88.74 28.37 88.7 28.32L88.65 28.25C88.62 28.22 88.6 28.19 88.58 28.17L88.52 28.1C88.5 28.07 88.47 28.05 88.45 28.02L88.4 27.96L88.32 27.87L88.28 27.82C88.18 27.72 88.09 27.61 87.99 27.52L87.94 27.47L87.85 27.38L87.81 27.34C87.78 27.31 87.74 27.28 87.71 27.25L87.68 27.22C87.57 27.12 87.45 27.02 87.34 26.92L87.3 26.89C87.27 26.86 87.23 26.83 87.2 26.81L87.16 26.78C87.12 26.75 87.08 26.72 87.05 26.69L87.03 26.67C86.9 26.57 86.77 26.48 86.63 26.39L86.61 26.37C86.57 26.34 86.53 26.31 86.49 26.29L86.46 26.27C86.41 26.24 86.37 26.21 86.33 26.18L86.32 26.18C86.17 26.09 86.03 26 85.88 25.91L85.87 25.91C85.82 25.88 85.77 25.86 85.73 25.83L85.71 25.82C85.45 25.69 85.19 25.56 84.92 25.45L84.91 25.44C84.83 25.41 84.76 25.38 84.69 25.35L86.1 25.35C86.33 25.35 86.52 25.1 86.52 24.79C86.52 24.48 86.33 24.23 86.1 24.23L85.68 24.23C85.71 24.17 85.74 24.1 85.77 24.02C86.17 23.78 86.87 23.28 87.56 22.36L87.57 22.35C87.62 22.28 87.67 22.21 87.72 22.14L87.73 22.12C87.78 22.05 87.83 21.98 87.88 21.9L87.9 21.88C87.92 21.84 87.95 21.8 87.97 21.77C87.97 21.77 87.97 21.76 87.97 21.76C88 21.73 88.02 21.68 88.04 21.64L88.06 21.62C88.08 21.58 88.1 21.55 88.12 21.51C88.13 21.51 88.13 21.5 88.13 21.49C88.16 21.45 88.18 21.41 88.2 21.37L88.22 21.34C88.24 21.31 88.26 21.27 88.27 21.24C88.28 21.23 88.29 21.22 88.29 21.21C88.31 21.17 88.33 21.12 88.36 21.08L88.37 21.05C88.39 21.01 88.41 20.98 88.42 20.94L88.44 20.9C88.46 20.86 88.49 20.82 88.51 20.77L88.52 20.74C88.54 20.7 88.55 20.67 88.57 20.63L88.59 20.58C88.61 20.54 88.63 20.49 88.65 20.45C88.65 20.44 88.66 20.43 88.66 20.42C88.68 20.38 88.7 20.34 88.71 20.29L88.73 20.24C88.75 20.2 88.76 20.16 88.78 20.12L88.79 20.09C88.81 20.04 88.83 19.99 88.85 19.94L88.87 19.89C88.88 19.85 88.89 19.81 88.91 19.76C88.91 19.75 88.92 19.73 88.92 19.72C88.94 19.67 88.96 19.62 88.97 19.56C88.98 19.54 88.99 19.53 88.99 19.51L89.03 19.38C89.04 19.37 89.04 19.35 89.05 19.33C89.06 19.28 89.08 19.22 89.09 19.17C89.1 19.15 89.1 19.13 89.11 19.11C89.12 19.07 89.13 19.03 89.14 18.98C89.15 18.96 89.15 18.94 89.16 18.92C89.17 18.87 89.19 18.81 89.2 18.75L89.22 18.7C89.23 18.65 89.24 18.61 89.25 18.56L89.26 18.49C89.28 18.43 89.29 18.37 89.3 18.31C89.3 18.3 89.31 18.29 89.31 18.27C89.32 18.22 89.33 18.17 89.34 18.11C89.35 18.09 89.35 18.07 89.35 18.04C89.36 17.99 89.37 17.93 89.38 17.88C89.39 17.86 89.39 17.85 89.39 17.84C89.4 17.78 89.41 17.71 89.42 17.64C89.43 17.62 89.43 17.6 89.43 17.57C89.44 17.52 89.45 17.47 89.46 17.41L89.46 17.36C89.47 17.29 89.48 17.22 89.49 17.15C89.49 17.13 89.5 17.11 89.5 17.08C89.51 17.03 89.51 16.97 89.52 16.92C89.52 16.9 89.52 16.88 89.52 16.86C89.53 16.78 89.54 16.71 89.55 16.64C89.55 16.62 89.55 16.6 89.55 16.57C89.56 16.52 89.56 16.46 89.57 16.4C89.57 16.37 89.57 16.35 89.57 16.33C89.58 16.25 89.58 16.18 89.59 16.1C89.59 16.08 89.59 16.06 89.59 16.05C89.59 15.98 89.6 15.92 89.6 15.85C89.6 15.83 89.6 15.8 89.6 15.78C89.61 15.7 89.61 15.62 89.61 15.54C89.61 15.53 89.61 15.52 89.61 15.5C89.61 15.43 89.61 15.36 89.62 15.28C89.62 15.26 89.62 15.23 89.62 15.21C89.62 15.13 89.62 15.05 89.62 14.97L89.62 14.95C89.62 14.86 89.62 14.78 89.62 14.69L89.62 14.61C89.62 14.54 89.61 14.46 89.61 14.38L89.61 14.34C89.61 14.25 89.6 14.16 89.6 14.07C89.6 14.04 89.6 14.02 89.6 14C89.59 13.92 89.59 13.84 89.59 13.76C89.59 13.75 89.59 13.73 89.58 13.71C89.58 13.61 89.57 13.52 89.56 13.42L89.56 13.36C89.55 13.28 89.55 13.2 89.54 13.12C89.54 13.09 89.54 13.07 89.54 13.05C89.53 12.95 89.52 12.85 89.51 12.75C89.51 12.73 89.5 12.72 89.5 12.7C89.49 12.61 89.49 12.53 89.48 12.44C89.47 12.42 89.47 12.39 89.47 12.37C89.46 12.26 89.45 12.16 89.43 12.06C89.43 12.04 89.43 12.03 89.43 12.02C89.42 11.93 89.4 11.83 89.39 11.74C89.39 11.71 89.38 11.68 89.38 11.66C89.37 11.55 89.35 11.44 89.33 11.34C87.76 0.68 76.57 2.41 76.57 2.41L76.92 4.7L70.16 11.48L70.45 14.09L73.02 15.59C73.13 15.31 73.28 15.05 73.45 14.81C75.11 13 78.32 11.58 79.24 11.28C79.42 11.23 79.52 11.2 79.52 11.2C75.13 16.59 75.63 22.76 75.83 24.24C75.62 24.27 75.46 24.51 75.46 24.79C75.46 25.1 75.65 25.35 75.88 25.35L77.29 25.35C74.94 26.29 73.08 28.06 72.11 30.29C72.1 30.3 72.1 30.3 72.1 30.3C72.03 30.47 71.96 30.64 71.9 30.81C71.9 30.81 71.9 30.81 71.9 30.81C71.88 30.86 71.87 30.9 71.85 30.95C71.85 30.97 71.84 30.98 71.84 31C71.82 31.04 71.81 31.09 71.8 31.13C71.79 31.15 71.78 31.17 71.78 31.19C71.76 31.23 71.75 31.27 71.74 31.32L71.72 31.39C71.71 31.43 71.7 31.47 71.68 31.51C71.68 31.53 71.67 31.56 71.66 31.59C71.65 31.63 71.64 31.66 71.63 31.7C71.63 31.74 71.62 31.78 71.61 31.82C71.6 31.86 71.59 31.9 71.58 31.95L71.02 31.95C70.91 31.94 70.8 31.96 70.7 32C70.6 32.04 70.51 32.09 70.43 32.17C70.35 32.24 70.29 32.32 70.25 32.42C70.21 32.51 70.18 32.61 70.18 32.72C70.18 32.82 70.21 32.92 70.25 33.02C70.29 33.11 70.35 33.2 70.43 33.27C70.51 33.34 70.6 33.4 70.7 33.43C70.8 33.47 70.91 33.49 71.02 33.49L90.98 33.49C91.09 33.49 91.2 33.47 91.3 33.43C91.4 33.4 91.49 33.34 91.57 33.27C91.64 33.2 91.71 33.11 91.75 33.02C91.79 32.92 91.81 32.82 91.81 32.72C91.81 32.61 91.79 32.51 91.75 32.42C91.71 32.32 91.64 32.24 91.57 32.17C91.49 32.09 91.4 32.04 91.3 32C91.2 31.96 91.09 31.94 90.98 31.95L90.97 31.94Z" fill="#595653" fill-opacity="1.000000" fill-rule="nonzero"/>
	<path id="Клуб четырех коней" d="M106.49 15L109.36 15L104.79 8.82L109.12 3.1L106.44 3.1L102.18 8.87L102.18 3.1L99.66 3.1L99.66 15L102.18 15L102.18 8.97L106.49 15ZM117.74 15L120.26 15L120.26 3.1L112.75 3.1C112.62 4.25 112.47 5.33 112.33 6.34C112.18 7.36 112.04 8.25 111.92 9C111.8 9.76 111.7 10.31 111.63 10.67Q111.37 12.06 111.11 12.57C110.94 12.91 110.69 13.08 110.37 13.08C110.2 13.08 110.05 13.06 109.91 13.03C109.77 13 109.63 12.96 109.49 12.91L109.49 14.98Q110.04 15.16 110.69 15.16Q111.68 15.16 112.31 14.78C112.73 14.52 113.05 14.15 113.29 13.67Q113.65 12.93 113.87 11.9C113.96 11.47 114.04 10.99 114.13 10.44C114.22 9.89 114.31 9.31 114.39 8.69C114.47 8.08 114.55 7.47 114.62 6.87C114.7 6.27 114.77 5.72 114.83 5.21L117.74 5.21L117.74 15ZM128.06 13.47C128.43 12.92 128.79 12.27 129.12 11.52L132.8 3.1L130.2 3.1L128.14 8.1C128.04 8.34 127.92 8.63 127.8 8.95C127.67 9.27 127.57 9.53 127.5 9.73L127.42 9.73C127.35 9.52 127.25 9.27 127.12 8.96C126.99 8.66 126.88 8.42 126.8 8.25L124.59 3.1L121.93 3.1L126.04 11.65C125.89 12.04 125.7 12.37 125.45 12.64C125.21 12.91 124.81 13.05 124.26 13.05C123.98 13.05 123.68 13.03 123.36 12.98C123.03 12.94 122.74 12.86 122.47 12.75L122.47 14.91C122.76 14.99 123.08 15.05 123.43 15.09C123.77 15.14 124.09 15.16 124.37 15.16Q125.77 15.16 126.64 14.73C127.21 14.44 127.69 14.02 128.06 13.47ZM134.3 3.1L134.3 15L137.76 15Q140.32 15 141.5 14.02C142.28 13.37 142.67 12.46 142.67 11.28C142.67 10.58 142.5 9.96 142.16 9.42L142.15 9.41Q141.64 8.6 140.57 8.14Q139.49 7.67 137.81 7.67L136.81 7.67L136.81 5.19L141.81 5.19L141.81 3.1L134.3 3.1ZM139.47 12.56C139.03 12.81 138.43 12.93 137.66 12.93L136.81 12.93L136.81 9.73L137.46 9.73C138.28 9.73 138.93 9.83 139.41 10.04C139.89 10.23 140.12 10.65 140.12 11.28C140.12 11.89 139.91 12.32 139.47 12.56ZM236.02 18.72C236.28 18.28 236.45 17.77 236.5 17.19L234.25 17.19C234.2 17.77 234.02 18.17 233.71 18.38C233.41 18.6 233.02 18.71 232.54 18.71C231.96 18.71 231.55 18.61 231.29 18.41C231.04 18.21 230.88 17.8 230.82 17.19L228.61 17.19C228.65 17.79 228.79 18.31 229.03 18.74C229.26 19.18 229.65 19.51 230.2 19.75C230.75 19.99 231.51 20.11 232.49 20.11C233.44 20.11 234.2 19.99 234.77 19.74C235.34 19.5 235.75 19.15 236.02 18.72ZM201.79 30.26Q202.4 28.88 202.4 27.04Q202.4 25.19 201.79 23.81C201.39 22.9 200.77 22.19 199.93 21.68C199.1 21.17 198.04 20.92 196.75 20.92C195.46 20.92 194.39 21.17 193.55 21.68C192.71 22.19 192.09 22.89 191.68 23.8C191.28 24.71 191.08 25.79 191.08 27.02C191.08 28.25 191.28 29.33 191.68 30.25C192.09 31.17 192.71 31.89 193.55 32.4C194.39 32.91 195.45 33.16 196.74 33.16C198.04 33.16 199.1 32.91 199.93 32.4C200.77 31.89 201.39 31.17 201.79 30.26ZM106.27 33L108.79 33L108.79 21.1L106.27 21.1L106.27 26.43C105.7 26.63 105.18 26.78 104.71 26.88Q104.01 27.04 103.31 27.04L103.31 27.04C102.68 27.04 102.23 26.89 101.96 26.6Q101.56 26.17 101.56 25.3L101.56 21.1L99.05 21.1L99.05 26.02C99.05 27.02 99.36 27.78 99.99 28.32C100.61 28.86 101.48 29.13 102.6 29.13Q102.78 29.13 102.97 29.12Q103.66 29.09 104.35 28.95C104.93 28.83 105.58 28.65 106.27 28.4L106.27 33ZM111.79 33L118.63 33L118.63 30.91L114.3 30.91L114.3 27.85L118.33 27.85L118.33 25.78L114.3 25.78L114.3 23.17L118.63 23.17L118.63 21.1L111.79 21.1L111.79 33ZM123.18 33L125.69 33L125.69 23.21L128.92 23.21L128.92 21.1L119.94 21.1L119.94 23.21L123.18 23.21L123.18 33ZM130.75 21.1L130.75 33L134 33C135.7 33 136.93 32.67 137.71 32.02C138.49 31.37 138.87 30.46 138.87 29.28C138.87 28.58 138.71 27.96 138.37 27.42C138.03 26.87 137.51 26.45 136.79 26.14C136.08 25.83 135.18 25.67 134.08 25.67L133.26 25.67L133.26 21.1L130.75 21.1ZM140.33 21.1L140.33 33L142.84 33L142.84 21.1L140.33 21.1ZM152.99 22.1C152.28 21.43 151.17 21.1 149.64 21.1L145.84 21.1L145.84 33L148.35 33L148.35 28.77L149.43 28.77C150.59 28.77 151.5 28.58 152.17 28.22C152.84 27.85 153.32 27.36 153.61 26.76C153.9 26.15 154.05 25.51 154.05 24.82Q154.05 23.49 153.42 22.59Q153.23 22.32 152.99 22.1ZM156.3 33L163.14 33L163.14 30.91L158.81 30.91L158.81 27.85L162.84 27.85L162.84 25.78L158.81 25.78L158.81 23.17L163.14 23.17L163.14 21.1L156.3 21.1L156.3 33ZM172.34 33L175.23 33L171.21 27L174.94 21.1L172.23 21.1L169.71 25.38L167.15 21.1L164.37 21.1L168.07 26.87L164.12 33L166.82 33L169.58 28.5L172.34 33ZM187.58 33L190.45 33L185.88 26.82L190.21 21.1L187.53 21.1L183.27 26.87L183.27 21.1L180.75 21.1L180.75 33L183.27 33L183.27 26.97L187.58 33ZM212.09 33L214.61 33L214.61 21.1L212.09 21.1L212.09 25.77L207.38 25.77L207.38 21.1L204.87 21.1L204.87 33L207.38 33L207.38 27.86L212.09 27.86L212.09 33ZM217.6 33L224.45 33L224.45 30.91L220.12 30.91L220.12 27.85L224.14 27.85L224.14 25.78L220.12 25.78L220.12 23.17L224.45 23.17L224.45 21.1L217.6 21.1L217.6 33ZM229.19 21.1L226.93 21.1L226.93 33L229.96 33L235.47 23.88L235.53 23.88C235.52 23.96 235.51 24.13 235.49 24.38C235.48 24.63 235.46 24.92 235.44 25.25C235.43 25.58 235.41 25.93 235.4 26.29C235.39 26.65 235.38 26.98 235.38 27.28L235.38 33L237.63 33L237.63 21.1L234.62 21.1L229.12 30.13L229.07 30.13C229.09 30.04 229.1 29.88 229.11 29.64C229.12 29.4 229.13 29.12 229.14 28.79C229.15 28.46 229.17 28.13 229.18 27.78C229.19 27.44 229.19 27.13 229.19 26.85L229.19 21.1ZM194.44 29.97Q193.72 28.9 193.72 27.04Q193.72 25.15 194.44 24.09C194.92 23.38 195.69 23.02 196.75 23.02C197.82 23.02 198.59 23.38 199.05 24.09C199.52 24.8 199.75 25.78 199.75 27.04C199.75 28.28 199.52 29.26 199.05 29.97C198.59 30.69 197.82 31.05 196.74 31.05C195.68 31.05 194.92 30.69 194.44 29.97ZM148.35 23.17L149.5 23.17C150.83 23.17 151.5 23.75 151.5 24.9Q151.5 25.61 151.15 26.03Q151.03 26.17 150.87 26.28C150.46 26.56 149.89 26.7 149.18 26.7L148.35 26.7L148.35 23.17ZM135.69 30.56C135.26 30.81 134.67 30.93 133.93 30.93L133.26 30.93L133.26 27.73L133.81 27.73C134.61 27.73 135.23 27.83 135.67 28.04C136.11 28.23 136.33 28.65 136.33 29.28Q136.33 29.93 136.01 30.3Q135.88 30.46 135.69 30.56Z" fill="#595653" fill-opacity="1.000000" fill-rule="evenodd"/>
</svg>
