<svg width="2335.000000" height="60.000000" viewBox="0 0 2335 60" fill="none" xmlns="http://www.w3.org/2000/svg" xmlns:xlink="http://www.w3.org/1999/xlink">
	<desc>
			Created with Pixso.
	</desc>
	<defs/>
	<rect id="running line" width="2335.000000" height="60.000000" fill="#F54932" fill-opacity="1.000000"/>
	<path id="Дело помощи утопающим — дело рук самих утопающих!" d="M732.87 22.99L735 22.99L734.84 34.49L733.02 34.49L732.87 22.99ZM70.25 35.37Q71.07 33.56 71.07 31.12Q71.07 28.68 70.25 26.86Q69.71 25.67 68.84 24.84Q68.37 24.39 67.82 24.05Q66.21 23.04 63.86 23.04Q61.39 23.04 59.78 24.06Q59.13 24.46 58.61 25Q57.84 25.79 57.37 26.87Q56.58 28.68 56.58 31.1Q56.58 33.54 57.37 35.36Q57.86 36.5 58.67 37.32Q59.16 37.82 59.78 38.21Q61.39 39.22 63.84 39.22Q66.21 39.22 67.82 38.21Q68.39 37.84 68.86 37.38Q69.72 36.54 70.25 35.37ZM109.7 35.37Q110.52 33.56 110.52 31.12Q110.52 28.68 109.7 26.86Q109.16 25.67 108.29 24.84Q107.83 24.39 107.27 24.05Q105.66 23.04 103.31 23.04Q100.85 23.04 99.23 24.06Q98.58 24.46 98.06 25Q97.29 25.79 96.82 26.87Q96.03 28.68 96.03 31.1Q96.03 33.54 96.82 35.36Q97.31 36.5 98.12 37.32Q98.62 37.82 99.23 38.21Q100.85 39.22 103.29 39.22Q105.66 39.22 107.27 38.21Q107.84 37.84 108.31 37.38Q109.17 36.54 109.7 35.37ZM146.83 35.37Q147.66 33.56 147.66 31.12Q147.66 28.68 146.83 26.86Q146.3 25.67 145.42 24.84Q144.96 24.39 144.41 24.05Q142.8 23.04 140.45 23.04Q137.98 23.04 136.37 24.06Q135.72 24.46 135.2 25Q134.43 25.79 133.95 26.87Q133.16 28.68 133.16 31.1Q133.16 33.54 133.95 35.36Q134.45 36.5 135.26 37.32Q135.75 37.82 136.37 38.21Q137.98 39.22 140.43 39.22Q142.8 39.22 144.41 38.21Q144.98 37.84 145.45 37.38Q146.3 36.54 146.83 35.37ZM235.52 35.37Q236.35 33.56 236.35 31.12Q236.35 28.68 235.52 26.86Q234.98 25.67 234.11 24.84Q233.65 24.39 233.09 24.05Q231.49 23.04 229.13 23.04Q226.67 23.04 225.05 24.06Q224.4 24.46 223.89 25Q223.12 25.79 222.64 26.87Q221.85 28.68 221.85 31.1Q221.85 33.54 222.64 35.36Q223.13 36.5 223.95 37.32Q224.44 37.82 225.05 38.21Q226.67 39.22 229.11 39.22Q231.49 39.22 233.09 38.21Q233.67 37.84 234.14 37.38Q234.99 36.54 235.52 35.37ZM288.83 35.37Q289.61 33.56 289.61 31.12Q289.61 28.68 288.81 26.86Q288.23 25.56 287.28 24.68Q286.9 24.33 286.45 24.05Q284.9 23.04 282.64 23.04Q280.48 23.04 278.98 23.89Q278.33 24.26 277.81 24.76Q277.13 25.41 276.67 26.29Q275.86 27.84 275.71 29.93L271.95 29.93L271.95 23.28L269.96 23.28L269.96 39L271.95 39L271.95 31.67L275.66 31.67Q275.75 33.98 276.56 35.68Q277.1 36.79 277.95 37.57Q278.39 37.98 278.91 38.29Q280.44 39.22 282.68 39.22Q284.97 39.22 286.51 38.21Q286.96 37.9 287.35 37.53Q288.28 36.65 288.83 35.37ZM443.12 35.37Q443.95 33.56 443.95 31.12Q443.95 28.68 443.12 26.86Q442.59 25.67 441.71 24.84Q441.25 24.39 440.7 24.05Q439.09 23.04 436.74 23.04Q434.27 23.04 432.66 24.06Q432.01 24.46 431.49 25Q430.72 25.79 430.24 26.87Q429.45 28.68 429.45 31.1Q429.45 33.54 430.24 35.36Q430.74 36.5 431.55 37.32Q432.04 37.82 432.66 38.21Q434.27 39.22 436.72 39.22Q439.09 39.22 440.7 38.21Q441.27 37.84 441.74 37.38Q442.6 36.54 443.12 35.37ZM622.73 35.37Q623.55 33.56 623.55 31.12Q623.55 28.68 622.73 26.86Q622.19 25.67 621.32 24.84Q620.86 24.39 620.3 24.05Q618.69 23.04 616.34 23.04Q613.88 23.04 612.26 24.06Q611.61 24.46 611.09 25Q610.32 25.79 609.85 26.87Q609.06 28.68 609.06 31.1Q609.06 33.54 609.85 35.36Q610.34 36.5 611.15 37.32Q611.65 37.82 612.26 38.21Q613.88 39.22 616.32 39.22Q618.69 39.22 620.3 38.21Q620.87 37.84 621.34 37.38Q622.2 36.54 622.73 35.37ZM676.03 35.37Q676.82 33.56 676.82 31.12Q676.82 28.68 676.01 26.86Q675.44 25.56 674.48 24.68Q674.1 24.33 673.66 24.05Q672.11 23.04 669.84 23.04Q667.69 23.04 666.19 23.89Q665.54 24.26 665.02 24.76Q664.34 25.41 663.88 26.29Q663.07 27.84 662.91 29.93L659.15 29.93L659.15 23.28L657.17 23.28L657.17 39L659.15 39L659.15 31.67L662.87 31.67Q662.96 33.98 663.77 35.68Q664.31 36.79 665.16 37.57Q665.59 37.98 666.11 38.29Q667.64 39.22 669.89 39.22Q672.18 39.22 673.71 38.21Q674.17 37.9 674.56 37.53Q675.48 36.65 676.03 35.37ZM504.25 25.57Q505.47 24.8 507.17 24.8Q508.22 24.8 509.12 25.07Q510.01 25.33 510.73 25.66L511.53 23.99Q509.68 23.07 507.19 23.07Q504.77 23.07 503.07 24.09Q502.32 24.54 501.73 25.15Q501 25.92 500.51 26.93Q499.65 28.74 499.65 31.12Q499.65 33.58 500.45 35.41Q500.98 36.61 501.85 37.45Q502.31 37.89 502.86 38.23Q504.46 39.22 506.86 39.22Q508.16 39.22 509.09 39.06Q509.68 38.97 510.25 38.8Q510.58 38.7 510.91 38.58L510.91 36.86Q510.03 37.13 509.1 37.3Q508.18 37.48 507.15 37.48Q505.05 37.48 503.77 36.45Q503.39 36.16 503.09 35.77Q501.74 34.06 501.74 31.14Q501.74 28.19 503.19 26.5Q503.66 25.95 504.25 25.57ZM263.87 34.13L265.76 39L267.81 39L261.7 23.22L259.91 23.22L253.77 39L255.78 39L257.65 34.13L263.87 34.13ZM522.3 34.13L524.2 39L526.24 39L520.13 23.22L518.35 23.22L512.21 39L514.21 39L516.08 34.13L522.3 34.13ZM651.08 34.13L652.97 39L655.01 39L648.9 23.22L647.12 23.22L640.98 39L642.98 39L644.85 34.13L651.08 34.13ZM24.94 37.23L24.94 23.28L17.68 23.28Q17.59 25.02 17.23 26.89Q16.89 28.76 16.34 30.63Q15.79 32.49 15.07 34.18Q14.36 35.87 13.57 37.23L12.36 37.23L12.36 43.13L14.25 43.13L14.25 39L25.05 39L25.05 43.13L26.94 43.13L26.94 37.23L24.94 37.23ZM29.56 39L38.34 39L38.34 37.25L31.54 37.25L31.54 31.65L37.94 31.65L37.94 29.93L31.54 29.93L31.54 25.02L38.34 25.02L38.34 23.28L29.56 23.28L29.56 39ZM51.12 39L53.1 39L53.1 23.28L44.5 23.28Q44.19 25.73 43.89 27.89Q43.59 30.04 43.34 31.66Q43.09 33.27 42.91 34.11Q42.76 34.9 42.54 35.71Q42.32 36.51 41.93 37.05Q41.74 37.32 41.48 37.45Q41.22 37.59 40.89 37.59Q40.54 37.59 40.23 37.51Q39.92 37.43 39.68 37.32L39.68 38.97Q39.96 39.08 40.35 39.16Q40.74 39.24 41.11 39.24Q42.23 39.24 42.92 38.71Q43.62 38.18 44.04 37.15Q44.45 36.11 44.74 34.64Q44.98 33.5 45.22 31.87Q45.46 30.24 45.71 28.45Q45.95 26.65 46.15 25.02L51.12 25.02L51.12 39ZM80.74 23.28L80.74 39L82.72 39L82.72 25.02L90.57 25.02L90.57 39L92.53 39L92.53 23.28L80.74 23.28ZM115.76 25.22L120.93 39L122.56 39L127.79 25.25L127.88 25.25Q127.84 25.95 127.78 27.07Q127.73 28.19 127.73 29.34L127.73 39L129.69 39L129.69 23.28L126.78 23.28L121.86 36.16L121.77 36.16L116.93 23.28L114 23.28L114 39L115.83 39L115.83 29.47Q115.83 28.22 115.78 27.06Q115.74 25.91 115.68 25.22L115.76 25.22ZM171.25 43.13L171.25 37.25L169.35 37.25L169.35 23.28L167.37 23.28L167.37 37.23L161.23 37.23L161.23 23.28L159.24 23.28L159.24 37.23L153.12 37.23L153.12 23.28L151.14 23.28L151.14 39L169.35 39L169.35 43.13L171.25 43.13ZM175.91 23.28L174.06 23.28L174.06 39L176.26 39L184.93 25.93L185.02 25.93Q184.99 26.25 184.95 27.03Q184.91 27.8 184.87 28.72Q184.84 29.64 184.84 30.46L184.84 39L186.69 39L186.69 23.28L184.49 23.28L175.84 36.29L175.76 36.29Q175.8 35.94 175.83 35.19Q175.86 34.44 175.89 33.54Q175.91 32.64 175.91 31.91L175.91 23.28ZM202.28 37.14Q203 36.09 203.7 34.53L208.72 23.28L206.63 23.28L202.84 32Q202.76 32.22 202.62 32.56Q202.49 32.9 202.4 33.14L202.32 33.14Q202.2 32.83 202.05 32.5Q201.9 32.15 201.79 31.93L197.41 23.28L195.23 23.28L201.28 34.97Q200.67 36.31 199.95 36.84Q199.24 37.37 198 37.37Q197.45 37.37 196.94 37.25Q196.44 37.13 196 36.93L196 38.89Q196.44 39.04 196.98 39.12Q197.52 39.22 198.14 39.22Q199.63 39.22 200.6 38.7Q201.57 38.18 202.28 37.14ZM213.84 39L215.82 39L215.82 25.02L220.71 25.02L220.71 23.28L208.94 23.28L208.94 25.02L213.84 25.02L213.84 39ZM239.82 23.28L239.82 39L241.81 39L241.81 25.02L249.66 25.02L249.66 39L251.62 39L251.62 23.28L239.82 23.28ZM313.22 43.13L313.22 37.25L311.33 37.25L311.33 23.28L309.34 23.28L309.34 37.23L303.21 37.23L303.21 23.28L301.21 23.28L301.21 37.23L295.09 37.23L295.09 23.28L293.11 23.28L293.11 39L311.33 39L311.33 43.13L313.22 43.13ZM317.88 23.28L316.03 23.28L316.03 39L318.23 39L326.9 25.93L326.99 25.93Q326.97 26.25 326.92 27.03Q326.88 27.8 326.84 28.72Q326.81 29.64 326.81 30.46L326.81 39L328.66 39L328.66 23.28L326.46 23.28L317.81 36.29L317.73 36.29Q317.77 35.94 317.8 35.19Q317.84 34.44 317.86 33.54Q317.88 32.64 317.88 31.91L317.88 23.28ZM334.67 25.22L339.84 39L341.47 39L346.7 25.25L346.79 25.25Q346.75 25.95 346.69 27.07Q346.63 28.19 346.63 29.34L346.63 39L348.59 39L348.59 23.28L345.69 23.28L340.76 36.16L340.67 36.16L335.83 23.28L332.91 23.28L332.91 39L334.73 39L334.73 29.47Q334.73 28.22 334.69 27.06Q334.65 25.91 334.58 25.22L334.67 25.22ZM397.82 37.23L397.82 23.28L390.56 23.28Q390.47 25.02 390.11 26.89Q389.76 28.76 389.22 30.63Q388.67 32.49 387.95 34.18Q387.23 35.87 386.44 37.23L385.24 37.23L385.24 43.13L387.13 43.13L387.13 39L397.93 39L397.93 43.13L399.82 43.13L399.82 37.23L397.82 37.23ZM402.44 39L411.22 39L411.22 37.25L404.42 37.25L404.42 31.65L410.82 31.65L410.82 29.93L404.42 29.93L404.42 25.02L411.22 25.02L411.22 23.28L402.44 23.28L402.44 39ZM424 39L425.98 39L425.98 23.28L417.38 23.28Q417.07 25.73 416.77 27.89Q416.47 30.04 416.22 31.66Q415.97 33.27 415.79 34.11Q415.64 34.9 415.42 35.71Q415.2 36.51 414.81 37.05Q414.62 37.32 414.36 37.45Q414.09 37.59 413.77 37.59Q413.42 37.59 413.11 37.51Q412.8 37.43 412.56 37.32L412.56 38.97Q412.84 39.08 413.23 39.16Q413.62 39.24 413.99 39.24Q415.11 39.24 415.8 38.71Q416.49 38.18 416.91 37.15Q417.33 36.11 417.62 34.64Q417.86 33.5 418.1 31.87Q418.34 30.24 418.58 28.45Q418.83 26.65 419.02 25.02L424 25.02L424 39ZM462.26 24.5Q460.85 23.28 457.77 23.28L453.61 23.28L453.61 39L455.6 39L455.6 32.88L457.4 32.88Q459.75 32.88 461.13 32.17Q462.46 31.49 463.05 30.41Q463.06 30.37 463.08 30.34Q463.34 29.84 463.48 29.32Q463.67 28.64 463.67 27.91Q463.67 26.29 462.9 25.2Q462.63 24.82 462.26 24.5ZM472.09 37.14Q472.8 36.09 473.5 34.53L478.52 23.28L476.43 23.28L472.64 32L472.42 32.56Q472.29 32.9 472.2 33.14L472.12 33.14Q472 32.83 471.85 32.5Q471.7 32.15 471.59 31.93L467.21 23.28L465.03 23.28L471.08 34.97Q470.47 36.31 469.75 36.84Q469.04 37.37 467.8 37.37Q467.26 37.37 466.75 37.25Q466.24 37.13 465.8 36.93L465.8 38.89Q466.24 39.04 466.78 39.12Q467.32 39.22 467.94 39.22Q469.43 39.22 470.4 38.7Q471.37 38.18 472.09 37.14ZM489.74 39L492.11 39L484.99 30.92L491.81 23.28L489.56 23.28L482.63 30.9L482.63 23.28L480.65 23.28L480.65 39L482.63 39L482.63 31.03L489.74 39ZM530.16 25.22L535.33 39L536.96 39L542.19 25.25L542.28 25.25Q542.24 25.95 542.18 27.07Q542.13 28.19 542.13 29.34L542.13 39L544.09 39L544.09 23.28L541.18 23.28L536.26 36.16L536.16 36.16L531.32 23.28L528.4 23.28L528.4 39L530.22 39L530.22 29.47Q530.22 28.22 530.18 27.06Q530.14 25.91 530.07 25.22L530.16 25.22ZM550.22 23.28L548.37 23.28L548.37 39L550.57 39L559.24 25.93L559.33 25.93Q559.31 26.25 559.27 27.03Q559.22 27.8 559.18 28.72Q559.15 29.64 559.15 30.46L559.15 39L561.01 39L561.01 23.28L558.8 23.28L550.16 36.29L550.07 36.29Q550.11 35.94 550.15 35.19Q550.18 34.44 550.2 33.54Q550.22 32.64 550.22 31.91L550.22 23.28ZM573.67 39L575.92 39L570.68 30.77L575.54 23.28L573.45 23.28L569.58 29.45L565.73 23.28L563.53 23.28L568.42 30.81L563.2 39L565.3 39L569.52 32.17L573.67 39ZM589.49 37.14Q590.2 36.09 590.91 34.53L595.92 23.28L593.83 23.28L590.05 32L589.83 32.56Q589.7 32.9 589.61 33.14L589.52 33.14Q589.41 32.83 589.25 32.5Q589.1 32.15 588.99 31.93L584.62 23.28L582.44 23.28L588.48 34.97Q587.87 36.31 587.16 36.84Q586.44 37.37 585.21 37.37Q584.66 37.37 584.15 37.25Q583.64 37.13 583.2 36.93L583.2 38.89Q583.64 39.04 584.18 39.12Q584.72 39.22 585.34 39.22Q586.84 39.22 587.8 38.7Q588.77 38.18 589.49 37.14ZM601.05 39L603.03 39L603.03 25.02L607.91 25.02L607.91 23.28L596.14 23.28L596.14 25.02L601.05 25.02L601.05 39ZM627.03 23.28L627.03 39L629.01 39L629.01 25.02L636.86 25.02L636.86 39L638.82 39L638.82 23.28L627.03 23.28ZM700.42 43.13L700.42 37.25L698.53 37.25L698.53 23.28L696.55 23.28L696.55 37.23L690.41 37.23L690.41 23.28L688.41 23.28L688.41 37.23L682.29 37.23L682.29 23.28L680.31 23.28L680.31 39L698.53 39L698.53 43.13L700.42 43.13ZM705.08 23.28L703.24 23.28L703.24 39L705.44 39L714.11 25.93L714.19 25.93Q714.17 26.25 714.13 27.03Q714.09 27.8 714.05 28.72Q714.02 29.64 714.02 30.46L714.02 39L715.87 39L715.87 23.28L713.67 23.28L705.02 36.29L704.93 36.29Q704.98 35.94 705.01 35.19Q705.04 34.44 705.06 33.54Q705.08 32.64 705.08 31.91L705.08 23.28ZM728.54 39L730.78 39L725.55 30.77L730.41 23.28L728.32 23.28L724.45 29.45L720.59 23.28L718.4 23.28L723.28 30.81L718.06 39L720.16 39L724.38 32.17L728.54 39ZM59.92 35.79Q58.67 34.09 58.67 31.12Q58.67 28.15 59.93 26.47Q60.21 26.09 60.57 25.8Q61.79 24.78 63.86 24.78Q65.93 24.78 67.13 25.8Q67.47 26.09 67.75 26.47Q68.98 28.15 68.98 31.12Q68.98 34.09 67.75 35.79Q67.47 36.17 67.13 36.47Q65.92 37.5 63.84 37.5Q61.79 37.5 60.57 36.49Q60.21 36.19 59.92 35.79ZM99.37 35.79Q98.12 34.09 98.12 31.12Q98.12 28.15 99.38 26.47Q99.66 26.09 100.02 25.8Q101.24 24.78 103.31 24.78Q105.38 24.78 106.58 25.8Q106.93 26.09 107.2 26.47Q108.44 28.15 108.44 31.12Q108.44 34.09 107.2 35.79Q106.93 36.17 106.58 36.47Q105.37 37.5 103.29 37.5Q101.24 37.5 100.03 36.49Q99.66 36.19 99.37 35.79ZM136.5 35.79Q135.25 34.09 135.25 31.12Q135.25 28.15 136.52 26.47Q136.8 26.09 137.15 25.8Q138.38 24.78 140.45 24.78Q142.51 24.78 143.72 25.8Q144.06 26.09 144.34 26.47Q145.57 28.15 145.57 31.12Q145.57 34.09 144.34 35.79Q144.06 36.17 143.72 36.47Q142.51 37.5 140.43 37.5Q138.38 37.5 137.16 36.49Q136.8 36.19 136.5 35.79ZM225.19 35.79Q223.94 34.09 223.94 31.12Q223.94 28.15 225.2 26.47Q225.49 26.09 225.84 25.8Q227.07 24.78 229.13 24.78Q231.2 24.78 232.41 25.8Q232.75 26.09 233.02 26.47Q234.26 28.15 234.26 31.12Q234.26 34.09 233.02 35.79Q232.75 36.17 232.4 36.47Q231.2 37.5 229.11 37.5Q227.07 37.5 225.85 36.49Q225.48 36.19 225.19 35.79ZM278.91 35.79Q277.73 34.09 277.73 31.12Q277.73 28.17 278.92 26.48Q279.23 26.03 279.65 25.7Q280.79 24.78 282.66 24.78Q284.55 24.78 285.68 25.71Q286.08 26.03 286.38 26.47Q287.54 28.15 287.54 31.12Q287.54 34.09 286.37 35.79Q286.06 36.24 285.66 36.56Q284.52 37.5 282.62 37.5Q280.78 37.5 279.65 36.6Q279.23 36.26 278.91 35.79ZM432.8 35.79Q431.54 34.09 431.54 31.12Q431.54 28.15 432.81 26.47Q433.09 26.09 433.44 25.8Q434.67 24.78 436.74 24.78Q438.81 24.78 440.01 25.8Q440.35 26.09 440.63 26.47Q441.86 28.15 441.86 31.12Q441.86 34.09 440.63 35.79Q440.35 36.17 440.01 36.47Q438.8 37.5 436.72 37.5Q434.67 37.5 433.45 36.49Q433.09 36.19 432.8 35.79ZM612.4 35.79Q611.15 34.09 611.15 31.12Q611.15 28.15 612.41 26.47Q612.69 26.09 613.05 25.8Q614.27 24.78 616.34 24.78Q618.41 24.78 619.61 25.8Q619.96 26.09 620.23 26.47Q621.46 28.15 621.46 31.12Q621.46 34.09 620.23 35.79Q619.95 36.17 619.61 36.47Q618.4 37.5 616.32 37.5Q614.27 37.5 613.06 36.49Q612.69 36.19 612.4 35.79ZM666.11 35.79Q664.94 34.09 664.94 31.12Q664.94 28.17 666.12 26.48Q666.44 26.03 666.85 25.7Q668 24.78 669.87 24.78Q671.76 24.78 672.89 25.71Q673.28 26.03 673.58 26.47Q674.75 28.15 674.75 31.12Q674.75 34.09 673.57 35.79Q673.27 36.24 672.87 36.56Q671.73 37.5 669.82 37.5Q667.98 37.5 666.86 36.6Q666.43 36.26 666.11 35.79ZM455.6 24.98L457.6 24.98Q459.69 24.98 460.66 25.73Q460.88 25.9 461.05 26.12Q461.62 26.83 461.62 28Q461.62 29.37 460.94 30.11Q460.75 30.31 460.52 30.46Q459.43 31.19 457.18 31.19L455.6 31.19L455.6 24.98ZM18.99 27.95Q19.33 26.35 19.42 25.07L22.98 25.07L22.98 37.23L15.66 37.23Q16.36 36.05 16.99 34.49Q17.62 32.93 18.13 31.24Q18.65 29.56 18.99 27.95ZM391.86 27.95Q392.21 26.35 392.29 25.07L395.86 25.07L395.86 37.23L388.53 37.23Q389.24 36.05 389.87 34.49Q390.49 32.93 391.01 31.24Q391.53 29.56 391.86 27.95ZM261.3 26.99Q261.45 27.45 261.52 27.62L263.27 32.37L258.31 32.37L260.09 27.62Q260.22 27.25 260.42 26.6Q260.62 25.95 260.77 25.27Q260.86 25.53 261 26.03Q261.14 26.52 261.3 26.99ZM519.73 26.99Q519.89 27.45 519.95 27.62L521.71 32.37L516.74 32.37L518.52 27.62Q518.65 27.25 518.85 26.6Q519.05 25.95 519.21 25.27Q519.29 25.53 519.43 26.03Q519.58 26.52 519.73 26.99ZM648.5 26.99Q648.66 27.45 648.72 27.62L650.48 32.37L645.51 32.37L647.29 27.62Q647.42 27.25 647.62 26.6Q647.82 25.95 647.98 25.27Q648.06 25.53 648.2 26.03Q648.35 26.52 648.5 26.99ZM357.8 32.24L357.8 33.96L378.03 33.96L378.03 32.24L357.8 32.24ZM735.34 37.71C735.34 38.48 734.71 39.12 733.93 39.12C733.16 39.12 732.52 38.48 732.52 37.71C732.52 36.94 733.16 36.31 733.93 36.31C734.71 36.31 735.34 36.94 735.34 37.71Z" fill="#FFFFFF" fill-opacity="1.000000" fill-rule="evenodd"/>
	<circle id="Ellipse 9" cx="793.000000" cy="30.000000" r="3.000000" fill="#FFFFFF" fill-opacity="1.000000"/>
	<path id="Шахматы двигают вперёд не только культуру, но и экономику!" d="M1098.8 19.31Q1098.53 19.56 1098.53 20.1Q1098.53 20.59 1098.78 20.86Q1098.81 20.89 1098.84 20.92Q1098.99 21.05 1099.16 21.12Q1099.35 21.2 1099.56 21.2Q1099.8 21.2 1099.99 21.12Q1100.15 21.05 1100.3 20.92Q1100.32 20.89 1100.36 20.86Q1100.6 20.59 1100.6 20.1Q1100.6 19.56 1100.32 19.31Q1100.31 19.29 1100.3 19.27Q1100.18 19.18 1100.05 19.12Q1099.82 19.02 1099.56 19.02Q1099.31 19.02 1099.11 19.11Q1098.97 19.17 1098.84 19.27Q1098.81 19.29 1098.8 19.31ZM1102.94 19.29Q1102.67 19.54 1102.67 20.1Q1102.67 20.61 1102.92 20.88Q1102.93 20.9 1102.96 20.92Q1103.1 21.04 1103.26 21.11Q1103.44 21.2 1103.68 21.2Q1103.91 21.2 1104.1 21.12Q1104.27 21.05 1104.41 20.92Q1104.43 20.89 1104.47 20.86Q1104.72 20.59 1104.72 20.1Q1104.72 19.56 1104.44 19.31Q1104.43 19.29 1104.41 19.27Q1104.29 19.18 1104.16 19.12Q1103.93 19.02 1103.68 19.02Q1103.42 19.02 1103.19 19.12Q1103.06 19.18 1102.96 19.27Q1102.96 19.28 1102.94 19.29ZM1584.87 22.99L1587 22.99L1586.84 34.49L1585.03 34.49L1584.87 22.99ZM1019.1 35.37Q1019.88 33.56 1019.88 31.12Q1019.88 28.68 1019.08 26.86Q1018.5 25.56 1017.55 24.68Q1017.17 24.33 1016.72 24.05Q1015.17 23.04 1012.91 23.04Q1010.75 23.04 1009.25 23.89Q1008.6 24.26 1008.08 24.76Q1007.41 25.41 1006.94 26.29Q1006.13 27.84 1005.98 29.93L1002.22 29.93L1002.22 23.28L1000.23 23.28L1000.23 39L1002.22 39L1002.22 31.67L1005.93 31.67Q1006.02 33.98 1006.84 35.68Q1007.37 36.79 1008.22 37.57Q1008.66 37.98 1009.18 38.29Q1010.71 39.22 1012.95 39.22Q1015.24 39.22 1016.78 38.21Q1017.24 37.9 1017.63 37.53Q1018.55 36.65 1019.1 35.37ZM1190.07 35.37Q1190.9 33.56 1190.9 31.12Q1190.9 28.68 1190.07 26.86Q1189.54 25.67 1188.67 24.84Q1188.21 24.39 1187.65 24.05Q1186.04 23.04 1183.68 23.04Q1181.23 23.04 1179.61 24.06Q1178.96 24.46 1178.43 25Q1177.67 25.79 1177.19 26.87Q1176.41 28.68 1176.41 31.1Q1176.41 33.54 1177.19 35.36Q1177.68 36.5 1178.5 37.32Q1179 37.82 1179.61 38.21Q1181.23 39.22 1183.67 39.22Q1186.04 39.22 1187.65 38.21Q1188.22 37.84 1188.68 37.38Q1189.55 36.54 1190.07 35.37ZM1249.67 35.37Q1250.5 33.56 1250.5 31.12Q1250.5 28.68 1249.67 26.86Q1249.14 25.67 1248.27 24.84Q1247.8 24.39 1247.25 24.05Q1245.64 23.04 1243.29 23.04Q1240.81 23.04 1239.21 24.06Q1238.56 24.46 1238.04 25Q1237.27 25.79 1236.79 26.87Q1236.01 28.68 1236.01 31.1Q1236.01 33.54 1236.79 35.36Q1237.29 36.5 1238.1 37.32Q1238.59 37.82 1239.21 38.21Q1240.81 39.22 1243.27 39.22Q1245.64 39.22 1247.25 38.21Q1247.81 37.84 1248.29 37.38Q1249.15 36.54 1249.67 35.37ZM1409.51 35.37Q1410.34 33.56 1410.34 31.12Q1410.34 28.68 1409.51 26.86Q1408.97 25.67 1408.1 24.84Q1407.64 24.39 1407.08 24.05Q1405.48 23.04 1403.13 23.04Q1400.66 23.04 1399.04 24.06Q1398.39 24.46 1397.88 25Q1397.11 25.79 1396.63 26.87Q1395.84 28.68 1395.84 31.1Q1395.84 33.54 1396.63 35.36Q1397.13 36.5 1397.94 37.32Q1398.43 37.82 1399.04 38.21Q1400.66 39.22 1403.1 39.22Q1405.48 39.22 1407.08 38.21Q1407.66 37.84 1408.13 37.38Q1408.98 36.54 1409.51 35.37ZM1483.05 35.37Q1483.87 33.56 1483.87 31.12Q1483.87 28.68 1483.05 26.86Q1482.51 25.67 1481.64 24.84Q1481.18 24.39 1480.62 24.05Q1479.01 23.04 1476.66 23.04Q1474.2 23.04 1472.58 24.06Q1471.93 24.46 1471.41 25Q1470.64 25.79 1470.17 26.87Q1469.38 28.68 1469.38 31.1Q1469.38 33.54 1470.17 35.36Q1470.66 36.5 1471.47 37.32Q1471.97 37.82 1472.58 38.21Q1474.2 39.22 1476.64 39.22Q1479.01 39.22 1480.62 38.21Q1481.19 37.84 1481.66 37.38Q1482.52 36.54 1483.05 35.37ZM1516.53 35.37Q1517.36 33.56 1517.36 31.12Q1517.36 28.68 1516.53 26.86Q1515.99 25.67 1515.12 24.84Q1514.66 24.39 1514.1 24.05Q1512.5 23.04 1510.15 23.04Q1507.68 23.04 1506.06 24.06Q1505.41 24.46 1504.9 25Q1504.13 25.79 1503.65 26.87Q1502.86 28.68 1502.86 31.1Q1502.86 33.54 1503.65 35.36Q1504.15 36.5 1504.96 37.32Q1505.45 37.82 1506.06 38.21Q1507.68 39.22 1510.12 39.22Q1512.5 39.22 1514.1 38.21Q1514.68 37.84 1515.15 37.38Q1516 36.54 1516.53 35.37ZM1444.05 25.06Q1444.95 24.8 1446.06 24.8Q1447.83 24.8 1449.09 25.62Q1449.45 25.85 1449.76 26.15Q1449.91 26.29 1450.04 26.44Q1451.21 27.74 1451.41 29.91L1443.79 29.91L1443.79 31.65L1451.43 31.65Q1451.34 34.46 1449.9 35.97Q1449.81 36.06 1449.73 36.14Q1448.29 37.48 1445.61 37.48Q1444.56 37.48 1443.61 37.29Q1442.67 37.1 1441.74 36.86L1441.74 38.58Q1442.67 38.91 1443.61 39.06Q1444.56 39.22 1445.93 39.22Q1448.48 39.22 1450.16 38.21Q1450.82 37.81 1451.35 37.28Q1452.17 36.46 1452.68 35.32Q1453.52 33.45 1453.52 30.88Q1453.52 28.63 1452.7 26.86Q1452.27 25.92 1451.6 25.2Q1451.02 24.55 1450.24 24.08Q1448.61 23.07 1446.08 23.07Q1444.85 23.07 1443.68 23.31Q1442.52 23.55 1441.61 23.99L1442.42 25.64Q1443.16 25.31 1444.05 25.06ZM841.03 34.13L842.92 39L844.97 39L838.86 23.22L837.08 23.22L830.94 39L832.94 39L834.81 34.13L841.03 34.13ZM887.94 34.13L889.83 39L891.87 39L885.76 23.22L883.98 23.22L877.84 39L879.84 39L881.71 34.13L887.94 34.13ZM994.14 34.13L996.03 39L998.07 39L991.96 23.22L990.18 23.22L984.04 39L986.04 39L987.91 34.13L994.14 34.13ZM810.25 39L828.78 39L828.78 23.28L826.78 23.28L826.78 37.23L820.49 37.23L820.49 23.28L818.5 23.28L818.5 37.23L812.24 37.23L812.24 23.28L810.25 23.28L810.25 39ZM855.55 39L857.8 39L852.56 30.77L857.42 23.28L855.33 23.28L851.46 29.45L847.61 23.28L845.41 23.28L850.3 30.81L845.08 39L847.17 39L851.4 32.17L855.55 39ZM861.78 25.22L866.95 39L868.58 39L873.81 25.25L873.9 25.25Q873.86 25.95 873.8 27.07Q873.75 28.19 873.75 29.34L873.75 39L875.71 39L875.71 23.28L872.8 23.28L867.88 36.16L867.79 36.16L862.95 23.28L860.02 23.28L860.02 39L861.84 39L861.84 29.47Q861.84 28.22 861.8 27.06Q861.76 25.91 861.69 25.22L861.78 25.22ZM895.48 39L897.46 39L897.46 25.02L902.35 25.02L902.35 23.28L890.58 23.28L890.58 25.02L895.48 25.02L895.48 39ZM904.72 23.28L904.72 39L909.37 39Q912.27 39 913.6 37.73Q914.02 37.33 914.31 36.86Q914.93 35.81 914.93 34.4Q914.93 33.3 914.52 32.39Q914.46 32.26 914.39 32.13Q914.37 32.09 914.35 32.06Q913.81 31.1 912.59 30.52Q911.32 29.93 909.13 29.93L906.7 29.93L906.7 23.28L904.72 23.28ZM917.35 23.28L917.35 39L919.33 39L919.33 23.28L917.35 23.28ZM940.37 37.23L940.37 23.28L933.11 23.28Q933.02 25.02 932.66 26.89Q932.32 28.76 931.77 30.63Q931.22 32.49 930.5 34.18Q929.79 35.87 929 37.23L927.79 37.23L927.79 43.13L929.68 43.13L929.68 39L940.48 39L940.48 43.13L942.37 43.13L942.37 37.23L940.37 37.23ZM953.93 24.15Q952.43 23.28 949.48 23.28L944.99 23.28L944.99 39L950.51 39Q953.04 39 954.5 37.83Q954.99 37.44 955.31 36.95Q955.97 35.96 955.97 34.53Q955.97 33.3 955.5 32.53Q955.28 32.15 954.98 31.87Q954.65 31.56 954.24 31.34Q953.44 30.92 952.45 30.77L952.45 30.66Q953.79 30.41 954.55 29.61Q954.61 29.54 954.67 29.48Q954.82 29.29 954.95 29.09Q955.44 28.28 955.44 27.18Q955.44 25.66 954.69 24.78Q954.38 24.41 953.93 24.15ZM961.16 23.28L959.31 23.28L959.31 39L961.51 39L970.18 25.93L970.27 25.93Q970.25 26.25 970.2 27.03Q970.16 27.8 970.12 28.72Q970.09 29.64 970.09 30.46L970.09 39L971.94 39L971.94 23.28L969.74 23.28L961.09 36.29L961.01 36.29Q961.05 35.94 961.08 35.19Q961.11 34.44 961.14 33.54Q961.16 32.64 961.16 31.91L961.16 23.28ZM985.05 25.05L985.05 23.28L976.18 23.28L976.18 39L978.17 39L978.17 25.05L985.05 25.05ZM1025.71 39L1027.68 39L1027.68 25.02L1032.56 25.02L1032.56 23.28L1020.81 23.28L1020.81 25.02L1025.71 25.02L1025.71 39ZM1050.07 24.15Q1048.57 23.28 1045.63 23.28L1041.14 23.28L1041.14 39L1046.66 39Q1049.18 39 1050.65 37.83Q1051.14 37.44 1051.46 36.95Q1052.12 35.96 1052.12 34.53Q1052.12 33.3 1051.65 32.53Q1051.43 32.15 1051.13 31.87Q1050.8 31.56 1050.39 31.34Q1049.59 30.92 1048.6 30.77L1048.6 30.66Q1049.93 30.41 1050.69 29.61Q1050.76 29.54 1050.81 29.48Q1050.97 29.29 1051.1 29.09Q1051.59 28.28 1051.59 27.18Q1051.59 25.66 1050.84 24.78Q1050.53 24.41 1050.07 24.15ZM1055.43 23.28L1055.43 39L1057.42 39L1057.42 25.02L1065.27 25.02L1065.27 39L1067.23 39L1067.23 23.28L1055.43 23.28ZM1071.52 39L1080.3 39L1080.3 37.25L1073.5 37.25L1073.5 31.65L1079.9 31.65L1079.9 29.93L1073.5 29.93L1073.5 25.02L1080.3 25.02L1080.3 23.28L1071.52 23.28L1071.52 39ZM1092.4 24.5Q1090.99 23.28 1087.91 23.28L1083.75 23.28L1083.75 39L1085.73 39L1085.73 32.88L1087.54 32.88Q1089.89 32.88 1091.27 32.17Q1092.6 31.49 1093.18 30.41Q1093.19 30.37 1093.22 30.34Q1093.48 29.84 1093.62 29.32Q1093.81 28.64 1093.81 27.91Q1093.81 26.29 1093.04 25.2Q1092.77 24.82 1092.4 24.5ZM1097.06 39L1105.84 39L1105.84 37.25L1099.04 37.25L1099.04 31.65L1105.44 31.65L1105.44 29.93L1099.04 29.93L1099.04 25.02L1105.84 25.02L1105.84 23.28L1097.06 23.28L1097.06 39ZM1119.88 37.23L1119.88 23.28L1112.62 23.28Q1112.53 25.02 1112.17 26.89Q1111.81 28.76 1111.28 30.63Q1110.73 32.49 1110.01 34.18Q1109.29 35.87 1108.5 37.23L1107.3 37.23L1107.3 43.13L1109.18 43.13L1109.18 39L1119.99 39L1119.99 43.13L1121.88 43.13L1121.88 37.23L1119.88 37.23ZM1140.72 39L1142.69 39L1142.69 23.28L1140.72 23.28L1140.72 29.93L1132.67 29.93L1132.67 23.28L1130.68 23.28L1130.68 39L1132.67 39L1132.67 31.67L1140.72 31.67L1140.72 39ZM1146.99 39L1155.77 39L1155.77 37.25L1148.97 37.25L1148.97 31.65L1155.37 31.65L1155.37 29.93L1148.97 29.93L1148.97 25.02L1155.77 25.02L1155.77 23.28L1146.99 23.28L1146.99 39ZM1168.4 39L1170.38 39L1170.38 25.02L1175.26 25.02L1175.26 23.28L1163.49 23.28L1163.49 25.02L1168.4 25.02L1168.4 39ZM1203.27 39L1205.25 39L1205.25 23.28L1196.65 23.28Q1196.34 25.73 1196.04 27.89Q1195.74 30.04 1195.49 31.66Q1195.24 33.27 1195.06 34.11Q1194.91 34.9 1194.68 35.71Q1194.47 36.51 1194.07 37.05Q1193.89 37.32 1193.63 37.45Q1193.37 37.59 1193.04 37.59Q1192.68 37.59 1192.38 37.51Q1192.06 37.43 1191.82 37.32L1191.82 38.97Q1192.11 39.08 1192.5 39.16Q1192.89 39.24 1193.26 39.24Q1194.38 39.24 1195.06 38.71Q1195.77 38.18 1196.18 37.15Q1196.6 36.11 1196.89 34.64Q1197.13 33.5 1197.37 31.87Q1197.61 30.24 1197.85 28.45Q1198.1 26.65 1198.29 25.02L1203.27 25.02L1203.27 39ZM1209.52 23.28L1209.52 39L1214.68 39Q1217.56 39 1218.97 37.73Q1219.5 37.26 1219.82 36.68Q1220.39 35.7 1220.39 34.4Q1220.39 33.4 1220.02 32.56Q1219.93 32.34 1219.81 32.13L1219.81 32.13Q1219.24 31.12 1217.93 30.52Q1216.64 29.93 1214.44 29.93L1211.5 29.93L1211.5 23.28L1209.52 23.28ZM1232.73 39L1235.1 39L1227.97 30.92L1234.79 23.28L1232.55 23.28L1225.62 30.9L1225.62 23.28L1223.64 23.28L1223.64 39L1225.62 39L1225.62 31.03L1232.73 39ZM1269.25 39L1271.63 39L1264.5 30.92L1271.31 23.28L1269.07 23.28L1262.15 30.9L1262.15 23.28L1260.16 23.28L1260.16 39L1262.15 39L1262.15 31.03L1269.25 39ZM1278.92 37.14Q1279.64 36.09 1280.34 34.53L1285.36 23.28L1283.27 23.28L1279.48 32L1279.26 32.56Q1279.13 32.9 1279.04 33.14L1278.94 33.14Q1278.84 32.83 1278.68 32.5Q1278.54 32.15 1278.43 31.93L1274.05 23.28L1271.87 23.28L1277.92 34.97Q1277.31 36.31 1276.59 36.84Q1275.88 37.37 1274.64 37.37Q1274.09 37.37 1273.57 37.25Q1273.07 37.13 1272.64 36.93L1272.64 38.89Q1273.07 39.04 1273.62 39.12Q1274.16 39.22 1274.78 39.22Q1276.27 39.22 1277.24 38.7Q1278.21 38.18 1278.92 37.14ZM1295.72 39L1297.69 39L1297.69 23.28L1289.1 23.28Q1288.79 25.73 1288.49 27.89Q1288.18 30.04 1287.93 31.66Q1287.68 33.27 1287.51 34.11Q1287.36 34.9 1287.14 35.71Q1286.92 36.51 1286.53 37.05Q1286.34 37.32 1286.07 37.45Q1285.81 37.59 1285.49 37.59Q1285.14 37.59 1284.82 37.51Q1284.52 37.43 1284.28 37.32L1284.28 38.97Q1284.56 39.08 1284.94 39.16Q1285.34 39.24 1285.71 39.24Q1286.82 39.24 1287.52 38.71Q1288.21 38.18 1288.63 37.15Q1289.05 36.11 1289.34 34.64Q1289.57 33.5 1289.81 31.87Q1290.06 30.24 1290.3 28.45Q1290.55 26.65 1290.74 25.02L1295.72 25.02L1295.72 39ZM1301.96 23.28L1301.96 39L1307.14 39Q1310.02 39 1311.42 37.73Q1311.95 37.26 1312.28 36.68Q1312.84 35.7 1312.84 34.4Q1312.84 33.4 1312.47 32.56Q1312.38 32.34 1312.26 32.13L1312.26 32.13Q1311.69 31.12 1310.39 30.52Q1309.09 29.93 1306.9 29.93L1303.94 29.93L1303.94 23.28L1301.96 23.28ZM1317.98 39L1319.96 39L1319.96 25.02L1324.84 25.02L1324.84 23.28L1313.08 23.28L1313.08 25.02L1317.98 25.02L1317.98 39ZM1332.38 37.14Q1333.1 36.09 1333.8 34.53L1338.82 23.28L1336.73 23.28L1332.94 32L1332.72 32.56Q1332.59 32.9 1332.5 33.14L1332.41 33.14Q1332.3 32.83 1332.15 32.5Q1332 32.15 1331.89 31.93L1327.51 23.28L1325.33 23.28L1331.38 34.97Q1330.77 36.31 1330.05 36.84Q1329.34 37.37 1328.1 37.37Q1327.55 37.37 1327.04 37.25Q1326.54 37.13 1326.1 36.93L1326.1 38.89Q1326.54 39.04 1327.08 39.12Q1327.62 39.22 1328.24 39.22Q1329.73 39.22 1330.7 38.7Q1331.67 38.18 1332.38 37.14ZM1349.6 24.5Q1348.19 23.28 1345.11 23.28L1340.95 23.28L1340.95 39L1342.93 39L1342.93 32.88L1344.74 32.88Q1347.09 32.88 1348.46 32.17Q1349.79 31.49 1350.38 30.41Q1350.4 30.37 1350.42 30.34Q1350.67 29.84 1350.82 29.32Q1351 28.64 1351 27.91Q1351 26.29 1350.24 25.2Q1349.97 24.82 1349.6 24.5ZM1359.42 37.14Q1360.13 36.09 1360.84 34.53L1365.85 23.28L1363.77 23.28L1359.98 32L1359.76 32.56Q1359.63 32.9 1359.54 33.14L1359.45 33.14Q1359.34 32.83 1359.18 32.5Q1359.03 32.15 1358.93 31.93L1354.55 23.28L1352.37 23.28L1358.42 34.97Q1357.8 36.31 1357.09 36.84Q1356.37 37.37 1355.14 37.37Q1354.59 37.37 1354.08 37.25Q1353.58 37.13 1353.14 36.93L1353.14 38.89Q1353.58 39.04 1354.11 39.12Q1354.66 39.22 1355.27 39.22Q1356.77 39.22 1357.73 38.7Q1358.71 38.18 1359.42 37.14ZM1390.36 39L1392.35 39L1392.35 23.28L1390.36 23.28L1390.36 29.93L1382.31 29.93L1382.31 23.28L1380.33 23.28L1380.33 39L1382.31 39L1382.31 31.67L1390.36 31.67L1390.36 39ZM1421.87 23.28L1420.02 23.28L1420.02 39L1422.23 39L1430.89 25.93L1430.98 25.93Q1430.96 26.25 1430.92 27.03Q1430.87 27.8 1430.84 28.72Q1430.8 29.64 1430.8 30.46L1430.8 39L1432.66 39L1432.66 23.28L1430.45 23.28L1421.81 36.29L1421.72 36.29Q1421.76 35.94 1421.8 35.19Q1421.83 34.44 1421.85 33.54Q1421.87 32.64 1421.87 31.91L1421.87 23.28ZM1466.1 39L1468.47 39L1461.35 30.92L1468.17 23.28L1465.92 23.28L1458.99 30.9L1458.99 23.28L1457.01 23.28L1457.01 39L1458.99 39L1458.99 31.03L1466.1 39ZM1497.38 39L1499.36 39L1499.36 23.28L1497.38 23.28L1497.38 29.93L1489.33 29.93L1489.33 23.28L1487.35 23.28L1487.35 39L1489.33 39L1489.33 31.67L1497.38 31.67L1497.38 39ZM1522.59 25.22L1527.77 39L1529.39 39L1534.63 25.25L1534.72 25.25Q1534.67 25.95 1534.62 27.07Q1534.56 28.19 1534.56 29.34L1534.56 39L1536.52 39L1536.52 23.28L1533.62 23.28L1528.69 36.16L1528.6 36.16L1523.76 23.28L1520.83 23.28L1520.83 39L1522.66 39L1522.66 29.47Q1522.66 28.22 1522.62 27.06Q1522.57 25.91 1522.51 25.22L1522.59 25.22ZM1542.66 23.28L1540.81 23.28L1540.81 39L1543.01 39L1551.68 25.93L1551.77 25.93Q1551.74 26.25 1551.7 27.03Q1551.66 27.8 1551.62 28.72Q1551.59 29.64 1551.59 30.46L1551.59 39L1553.44 39L1553.44 23.28L1551.24 23.28L1542.59 36.29L1542.51 36.29Q1542.55 35.94 1542.58 35.19Q1542.61 34.44 1542.64 33.54Q1542.66 32.64 1542.66 31.91L1542.66 23.28ZM1566.77 39L1569.15 39L1562.02 30.92L1568.84 23.28L1566.59 23.28L1559.67 30.9L1559.67 23.28L1557.68 23.28L1557.68 39L1559.67 39L1559.67 31.03L1566.77 39ZM1576.44 37.14Q1577.16 36.09 1577.86 34.53L1582.88 23.28L1580.79 23.28L1577 32L1576.78 32.56Q1576.65 32.9 1576.56 33.14L1576.47 33.14Q1576.36 32.83 1576.2 32.5Q1576.05 32.15 1575.95 31.93L1571.57 23.28L1569.39 23.28L1575.44 34.97Q1574.82 36.31 1574.11 36.84Q1573.4 37.37 1572.16 37.37Q1571.61 37.37 1571.1 37.25Q1570.6 37.13 1570.16 36.93L1570.16 38.89Q1570.6 39.04 1571.13 39.12Q1571.68 39.22 1572.29 39.22Q1573.79 39.22 1574.75 38.7Q1575.73 38.18 1576.44 37.14ZM1009.18 35.79Q1008 34.09 1008 31.12Q1008 28.17 1009.19 26.48Q1009.51 26.03 1009.92 25.7Q1011.06 24.78 1012.93 24.78Q1014.82 24.78 1015.95 25.71Q1016.35 26.03 1016.65 26.47Q1017.81 28.15 1017.81 31.12Q1017.81 34.09 1016.64 35.79Q1016.33 36.24 1015.93 36.56Q1014.8 37.5 1012.89 37.5Q1011.05 37.5 1009.92 36.6Q1009.5 36.26 1009.18 35.79ZM1179.75 35.79Q1178.5 34.09 1178.5 31.12Q1178.5 28.15 1179.76 26.47Q1180.04 26.09 1180.4 25.8Q1181.62 24.78 1183.68 24.78Q1185.76 24.78 1186.96 25.8Q1187.31 26.09 1187.57 26.47Q1188.81 28.15 1188.81 31.12Q1188.81 34.09 1187.57 35.79Q1187.31 36.17 1186.96 36.47Q1185.75 37.5 1183.67 37.5Q1181.62 37.5 1180.41 36.49Q1180.04 36.19 1179.75 35.79ZM1239.35 35.79Q1238.09 34.09 1238.09 31.12Q1238.09 28.15 1239.36 26.47Q1239.64 26.09 1240 25.8Q1241.22 24.78 1243.29 24.78Q1245.36 24.78 1246.56 25.8Q1246.9 26.09 1247.18 26.47Q1248.41 28.15 1248.41 31.12Q1248.41 34.09 1247.18 35.79Q1246.9 36.17 1246.56 36.47Q1245.35 37.5 1243.27 37.5Q1241.22 37.5 1240 36.49Q1239.64 36.19 1239.35 35.79ZM1399.18 35.79Q1397.93 34.09 1397.93 31.12Q1397.93 28.15 1399.19 26.47Q1399.48 26.09 1399.83 25.8Q1401.06 24.78 1403.13 24.78Q1405.19 24.78 1406.4 25.8Q1406.74 26.09 1407.01 26.47Q1408.25 28.15 1408.25 31.12Q1408.25 34.09 1407.01 35.79Q1406.74 36.17 1406.39 36.47Q1405.19 37.5 1403.1 37.5Q1401.06 37.5 1399.84 36.49Q1399.47 36.19 1399.18 35.79ZM1472.72 35.79Q1471.47 34.09 1471.47 31.12Q1471.47 28.15 1472.73 26.47Q1473.01 26.09 1473.37 25.8Q1474.59 24.78 1476.66 24.78Q1478.73 24.78 1479.93 25.8Q1480.28 26.09 1480.55 26.47Q1481.78 28.15 1481.78 31.12Q1481.78 34.09 1480.55 35.79Q1480.28 36.17 1479.93 36.47Q1478.72 37.5 1476.64 37.5Q1474.59 37.5 1473.38 36.49Q1473.01 36.19 1472.72 35.79ZM1506.2 35.79Q1504.95 34.09 1504.95 31.12Q1504.95 28.15 1506.21 26.47Q1506.5 26.09 1506.85 25.8Q1508.08 24.78 1510.15 24.78Q1512.21 24.78 1513.42 25.8Q1513.76 26.09 1514.03 26.47Q1515.27 28.15 1515.27 31.12Q1515.27 34.09 1514.03 35.79Q1513.76 36.17 1513.41 36.47Q1512.21 37.5 1510.12 37.5Q1508.08 37.5 1506.86 36.49Q1506.49 36.19 1506.2 35.79ZM952.64 29.33Q951.9 29.98 949.88 29.98L946.97 29.98L946.97 24.98L949.56 24.98Q951.57 24.98 952.48 25.55Q952.76 25.72 952.96 25.96Q953.39 26.5 953.39 27.4Q953.39 28.47 952.87 29.1Q952.76 29.22 952.64 29.33ZM1048.79 29.33Q1048.05 29.98 1046.03 29.98L1043.12 29.98L1043.12 24.98L1045.71 24.98Q1047.72 24.98 1048.63 25.55Q1048.91 25.72 1049.11 25.96Q1049.54 26.5 1049.54 27.4Q1049.54 28.47 1049.02 29.1Q1048.91 29.22 1048.79 29.33ZM1085.73 24.98L1087.74 24.98Q1089.82 24.98 1090.79 25.73Q1091.02 25.9 1091.18 26.12Q1091.76 26.83 1091.76 28Q1091.76 29.37 1091.07 30.11Q1090.89 30.31 1090.66 30.46Q1089.56 31.19 1087.31 31.19L1085.73 31.19L1085.73 24.98ZM1342.93 24.98L1344.93 24.98Q1347.02 24.98 1347.99 25.73Q1348.22 25.9 1348.39 26.12Q1348.96 26.83 1348.96 28Q1348.96 29.37 1348.27 30.11Q1348.09 30.31 1347.86 30.46Q1346.76 31.19 1344.51 31.19L1342.93 31.19L1342.93 24.98ZM934.42 27.95Q934.76 26.35 934.85 25.07L938.41 25.07L938.41 37.23L931.09 37.23Q931.79 36.05 932.42 34.49Q933.05 32.93 933.56 31.24Q934.08 29.56 934.42 27.95ZM1113.92 27.95Q1114.27 26.35 1114.35 25.07L1117.92 25.07L1117.92 37.23L1110.59 37.23Q1111.3 36.05 1111.93 34.49Q1112.55 32.93 1113.06 31.24Q1113.59 29.56 1113.92 27.95ZM838.46 26.99Q838.62 27.45 838.68 27.62L840.44 32.37L835.47 32.37L837.25 27.62Q837.38 27.25 837.58 26.6Q837.78 25.95 837.93 25.27Q838.02 25.53 838.16 26.03Q838.31 26.52 838.46 26.99ZM885.37 26.99Q885.52 27.45 885.59 27.62L887.34 32.37L882.37 32.37L884.16 27.62Q884.29 27.25 884.48 26.6Q884.68 25.95 884.84 25.27Q884.92 25.53 885.06 26.03Q885.21 26.52 885.37 26.99ZM991.56 26.99Q991.72 27.45 991.78 27.62L993.54 32.37L988.57 32.37L990.36 27.62Q990.49 27.25 990.68 26.6Q990.88 25.95 991.04 25.27Q991.12 25.53 991.26 26.03Q991.41 26.52 991.56 26.99ZM946.97 37.32L946.97 31.63L949.98 31.63Q952.16 31.63 953.01 32.38Q953.33 32.67 953.53 33.02Q953.86 33.61 953.86 34.38Q953.86 35.33 953.43 36.02Q953.26 36.29 953.04 36.51Q952.23 37.32 950.14 37.32L946.97 37.32ZM1043.12 37.32L1043.12 31.63L1046.13 31.63Q1048.31 31.63 1049.16 32.38Q1049.48 32.67 1049.68 33.02Q1050.01 33.61 1050.01 34.38Q1050.01 35.33 1049.57 36.02Q1049.41 36.29 1049.18 36.51Q1048.38 37.32 1046.29 37.32L1043.12 37.32ZM1217.82 36.12Q1216.93 37.3 1214.49 37.3L1211.5 37.3L1211.5 31.65L1214.19 31.65Q1216.23 31.65 1217.28 32.27Q1217.59 32.44 1217.81 32.7Q1218.34 33.32 1218.34 34.4Q1218.34 35.45 1217.82 36.12ZM1310.28 36.12Q1309.39 37.3 1306.93 37.3L1303.94 37.3L1303.94 31.65L1306.65 31.65Q1308.68 31.65 1309.73 32.27Q1310.04 32.44 1310.26 32.7Q1310.79 33.32 1310.79 34.4Q1310.79 35.45 1310.28 36.12ZM911.98 36.6Q911.08 37.32 909.19 37.32L906.7 37.32L906.7 31.67L908.91 31.67Q910.93 31.67 911.9 32.28Q912.13 32.41 912.3 32.6Q912.89 33.22 912.89 34.4Q912.89 35.57 912.31 36.28Q912.16 36.45 911.98 36.6ZM1587.34 37.71C1587.34 38.48 1586.71 39.12 1585.94 39.12C1585.16 39.12 1584.53 38.48 1584.53 37.71C1584.53 36.94 1585.16 36.31 1585.94 36.31C1586.71 36.31 1587.34 36.94 1587.34 37.71ZM1368.29 36.81L1370.29 36.81L1370.17 37.65C1369.9 39.43 1369.1 41.84 1368.73 42.9L1367.32 42.9C1367.52 41.91 1367.97 39.8 1368.2 37.68L1368.29 36.81Z" fill="#FFFFFF" fill-opacity="1.000000" fill-rule="evenodd"/>
	<circle id="Ellipse 10" cx="1664.000000" cy="30.000000" r="3.000000" fill="#FFFFFF" fill-opacity="1.000000"/>
	<path id="Лёд тронулся, господа присяжные заседатели!" d="M1698.72 19.31Q1698.45 19.56 1698.45 20.1Q1698.45 20.59 1698.7 20.86Q1698.73 20.89 1698.76 20.92Q1698.91 21.05 1699.08 21.12Q1699.27 21.2 1699.49 21.2Q1699.72 21.2 1699.91 21.12Q1700.08 21.05 1700.22 20.92Q1700.25 20.89 1700.28 20.86Q1700.52 20.59 1700.52 20.1Q1700.52 19.56 1700.25 19.31Q1700.24 19.29 1700.22 19.27Q1700.1 19.18 1699.97 19.12Q1699.75 19.02 1699.49 19.02Q1699.24 19.02 1699.03 19.11Q1698.89 19.17 1698.76 19.27Q1698.74 19.29 1698.72 19.31ZM1702.87 19.29Q1702.59 19.54 1702.59 20.1Q1702.59 20.61 1702.84 20.88Q1702.86 20.9 1702.89 20.92Q1703.02 21.04 1703.18 21.11Q1703.37 21.2 1703.61 21.2Q1703.83 21.2 1704.02 21.12Q1704.19 21.05 1704.33 20.92Q1704.36 20.89 1704.39 20.86Q1704.64 20.59 1704.64 20.1Q1704.64 19.56 1704.37 19.31Q1704.35 19.29 1704.33 19.27Q1704.21 19.18 1704.08 19.12Q1703.86 19.02 1703.61 19.02Q1703.34 19.02 1703.12 19.12Q1702.99 19.18 1702.89 19.27Q1702.88 19.28 1702.87 19.29ZM2252.87 22.99L2255 22.99L2254.84 34.49L2253.03 34.49L2252.87 22.99ZM1769.03 35.37Q1769.85 33.56 1769.85 31.12Q1769.85 28.68 1769.03 26.86Q1768.49 25.67 1767.62 24.84Q1767.15 24.39 1766.6 24.05Q1764.99 23.04 1762.64 23.04Q1760.17 23.04 1758.56 24.06Q1757.91 24.46 1757.39 25Q1756.62 25.79 1756.15 26.87Q1755.36 28.68 1755.36 31.1Q1755.36 33.54 1756.15 35.36Q1756.64 36.5 1757.45 37.32Q1757.95 37.82 1758.56 38.21Q1760.17 39.22 1762.62 39.22Q1764.99 39.22 1766.6 38.21Q1767.17 37.84 1767.64 37.38Q1768.5 36.54 1769.03 35.37ZM1882.11 35.37Q1882.94 33.56 1882.94 31.12Q1882.94 28.68 1882.11 26.86Q1881.57 25.67 1880.7 24.84Q1880.24 24.39 1879.68 24.05Q1878.07 23.04 1875.72 23.04Q1873.26 23.04 1871.64 24.06Q1870.99 24.46 1870.47 25Q1869.7 25.79 1869.23 26.87Q1868.44 28.68 1868.44 31.1Q1868.44 33.54 1869.23 35.36Q1869.72 36.5 1870.53 37.32Q1871.03 37.82 1871.64 38.21Q1873.26 39.22 1875.7 39.22Q1878.07 39.22 1879.68 38.21Q1880.25 37.84 1880.72 37.38Q1881.58 36.54 1882.11 35.37ZM1929.28 35.37Q1930.1 33.56 1930.1 31.12Q1930.1 28.68 1929.28 26.86Q1928.74 25.67 1927.87 24.84Q1927.4 24.39 1926.85 24.05Q1925.24 23.04 1922.89 23.04Q1920.42 23.04 1918.81 24.06Q1918.16 24.46 1917.64 25Q1916.87 25.79 1916.4 26.87Q1915.61 28.68 1915.61 31.1Q1915.61 33.54 1916.4 35.36Q1916.89 36.5 1917.7 37.32Q1918.2 37.82 1918.81 38.21Q1920.42 39.22 1922.87 39.22Q1925.24 39.22 1926.85 38.21Q1927.42 37.84 1927.89 37.38Q1928.75 36.54 1929.28 35.37ZM1821.65 25.57Q1822.87 24.8 1824.57 24.8Q1825.62 24.8 1826.51 25.07Q1827.41 25.33 1828.13 25.66L1828.93 23.99Q1827.08 23.07 1824.59 23.07Q1822.17 23.07 1820.47 24.09Q1819.72 24.54 1819.13 25.15Q1818.39 25.92 1817.91 26.93Q1817.05 28.74 1817.05 31.12Q1817.05 33.58 1817.85 35.41Q1818.37 36.61 1819.25 37.45Q1819.71 37.89 1820.26 38.23Q1821.86 39.22 1824.26 39.22Q1825.56 39.22 1826.49 39.06Q1827.08 38.97 1827.64 38.8Q1827.98 38.7 1828.31 38.58L1828.31 36.86Q1827.43 37.13 1826.5 37.3Q1825.58 37.48 1824.55 37.48Q1822.45 37.48 1821.17 36.45Q1820.79 36.16 1820.49 35.77Q1819.13 34.06 1819.13 31.14Q1819.13 28.19 1820.58 26.5Q1821.06 25.95 1821.65 25.57ZM1890.23 25.57Q1891.44 24.8 1893.15 24.8Q1894.2 24.8 1895.09 25.07Q1895.98 25.33 1896.71 25.66L1897.5 23.99Q1895.65 23.07 1893.17 23.07Q1890.74 23.07 1889.05 24.09Q1888.3 24.54 1887.71 25.15Q1886.97 25.92 1886.49 26.93Q1885.62 28.74 1885.62 31.12Q1885.62 33.58 1886.42 35.41Q1886.95 36.61 1887.82 37.45Q1888.28 37.89 1888.83 38.23Q1890.44 39.22 1892.83 39.22Q1894.13 39.22 1895.07 39.06Q1895.65 38.97 1896.22 38.8Q1896.56 38.7 1896.88 38.58L1896.88 36.86Q1896 37.13 1895.08 37.3Q1894.16 37.48 1893.12 37.48Q1891.03 37.48 1889.74 36.45Q1889.37 36.16 1889.06 35.77Q1887.71 34.06 1887.71 31.14Q1887.71 28.19 1889.16 26.5Q1889.64 25.95 1890.23 25.57ZM2018.69 25.57Q2019.91 24.8 2021.61 24.8Q2022.66 24.8 2023.55 25.07Q2024.45 25.33 2025.17 25.66L2025.97 23.99Q2024.12 23.07 2021.63 23.07Q2019.21 23.07 2017.51 24.09Q2016.76 24.54 2016.17 25.15Q2015.43 25.92 2014.95 26.93Q2014.08 28.74 2014.08 31.12Q2014.08 33.58 2014.88 35.41Q2015.41 36.61 2016.29 37.45Q2016.74 37.89 2017.3 38.23Q2018.9 39.22 2021.3 39.22Q2022.6 39.22 2023.53 39.06Q2024.12 38.97 2024.68 38.8Q2025.02 38.7 2025.35 38.58L2025.35 36.86Q2024.47 37.13 2023.54 37.3Q2022.62 37.48 2021.59 37.48Q2019.49 37.48 2018.21 36.45Q2017.83 36.16 2017.53 35.77Q2016.17 34.06 2016.17 31.14Q2016.17 28.19 2017.62 26.5Q2018.1 25.95 2018.69 25.57ZM2123.97 28.94Q2124.51 28.12 2124.51 26.96Q2124.51 26.15 2124.2 25.47Q2123.87 24.74 2123.19 24.17Q2121.87 23.07 2119.31 23.07Q2117.62 23.07 2116.27 23.54Q2114.92 24.02 2113.99 24.7L2114.94 26.03Q2115.86 25.44 2116.84 25.07Q2117.82 24.7 2119.29 24.7Q2120.7 24.7 2121.58 25.34Q2121.93 25.59 2122.13 25.92Q2122.46 26.44 2122.46 27.16Q2122.46 27.74 2122.24 28.21Q2121.96 28.82 2121.31 29.26Q2120.14 30.04 2117.82 30.04L2115.68 30.04L2115.68 31.69L2117.93 31.69Q2120.22 31.69 2121.49 32.37Q2122.09 32.69 2122.4 33.19Q2122.77 33.76 2122.77 34.55Q2122.77 35.4 2122.38 36.03Q2122.12 36.47 2121.68 36.8Q2120.59 37.59 2118.48 37.59Q2117.39 37.59 2116.18 37.31Q2114.96 37.03 2113.93 36.55L2113.93 38.36Q2114.92 38.84 2116.07 39.03Q2117.22 39.22 2118.5 39.22Q2121.67 39.22 2123.25 37.92Q2124.02 37.29 2124.42 36.47Q2124.84 35.61 2124.84 34.55Q2124.84 33.53 2124.39 32.77Q2124.15 32.36 2123.8 32.02Q2122.77 31.05 2120.79 30.79L2120.79 30.7Q2122.48 30.44 2123.49 29.5Q2123.77 29.25 2123.97 28.94ZM2146.03 25.57Q2147.25 24.8 2148.95 24.8Q2150 24.8 2150.89 25.07Q2151.79 25.33 2152.51 25.66L2153.31 23.99Q2151.46 23.07 2148.97 23.07Q2146.55 23.07 2144.85 24.09Q2144.1 24.54 2143.51 25.15Q2142.78 25.92 2142.29 26.93Q2141.43 28.74 2141.43 31.12Q2141.43 33.58 2142.23 35.41Q2142.76 36.61 2143.62 37.45Q2144.09 37.89 2144.63 38.23Q2146.24 39.22 2148.63 39.22Q2149.94 39.22 2150.87 39.06Q2151.46 38.97 2152.03 38.8Q2152.36 38.7 2152.69 38.58L2152.69 36.86Q2151.81 37.13 2150.87 37.3Q2149.96 37.48 2148.93 37.48Q2146.83 37.48 2145.55 36.45Q2145.17 36.16 2144.87 35.77Q2143.52 34.06 2143.52 31.14Q2143.52 28.19 2144.97 26.5Q2145.44 25.95 2146.03 25.57ZM1956.31 34.13L1958.2 39L1960.24 39L1954.13 23.22L1952.35 23.22L1946.21 39L1948.21 39L1950.08 34.13L1956.31 34.13ZM2136.12 34.13L2138.01 39L2140.06 39L2133.95 23.22L2132.15 23.22L2126.02 39L2128.03 39L2129.89 34.13L2136.12 34.13ZM2191.52 34.13L2193.4 39L2195.46 39L2189.34 23.22L2187.56 23.22L2181.42 39L2183.42 39L2185.29 34.13L2191.52 34.13ZM1690.74 39L1692.72 39L1692.72 23.28L1684.11 23.28Q1683.81 25.73 1683.51 27.89Q1683.21 30.04 1682.96 31.66Q1682.71 33.27 1682.53 34.11Q1682.38 34.9 1682.16 35.71Q1681.94 36.51 1681.55 37.05Q1681.36 37.32 1681.09 37.45Q1680.83 37.59 1680.5 37.59Q1680.16 37.59 1679.84 37.51Q1679.54 37.43 1679.3 37.32L1679.3 38.97Q1679.58 39.08 1679.97 39.16Q1680.35 39.24 1680.72 39.24Q1681.85 39.24 1682.54 38.71Q1683.23 38.18 1683.65 37.15Q1684.07 36.11 1684.36 34.64Q1684.6 33.5 1684.84 31.87Q1685.08 30.24 1685.32 28.45Q1685.56 26.65 1685.76 25.02L1690.74 25.02L1690.74 39ZM1696.98 39L1705.76 39L1705.76 37.25L1698.96 37.25L1698.96 31.65L1705.37 31.65L1705.37 29.93L1698.96 29.93L1698.96 25.02L1705.76 25.02L1705.76 23.28L1696.98 23.28L1696.98 39ZM1719.8 37.23L1719.8 23.28L1712.54 23.28Q1712.45 25.02 1712.09 26.89Q1711.74 28.76 1711.2 30.63Q1710.65 32.49 1709.93 34.18Q1709.22 35.87 1708.43 37.23L1707.22 37.23L1707.22 43.13L1709.11 43.13L1709.11 39L1719.91 39L1719.91 43.13L1721.8 43.13L1721.8 37.23L1719.8 37.23ZM1733.6 39L1735.58 39L1735.58 25.02L1740.46 25.02L1740.46 23.28L1728.69 23.28L1728.69 25.02L1733.6 25.02L1733.6 39ZM1751.48 24.5Q1750.08 23.28 1746.99 23.28L1742.84 23.28L1742.84 39L1744.82 39L1744.82 32.88L1746.62 32.88Q1748.98 32.88 1750.35 32.17Q1751.68 31.49 1752.27 30.41Q1752.29 30.37 1752.31 30.34Q1752.56 29.84 1752.7 29.32Q1752.89 28.64 1752.89 27.91Q1752.89 26.29 1752.13 25.2Q1751.85 24.82 1751.48 24.5ZM1783.36 39L1785.34 39L1785.34 23.28L1783.36 23.28L1783.36 29.93L1775.31 29.93L1775.31 23.28L1773.33 23.28L1773.33 39L1775.31 39L1775.31 31.67L1783.36 31.67L1783.36 39ZM1794.79 37.14Q1795.51 36.09 1796.21 34.53L1801.23 23.28L1799.14 23.28L1795.35 32Q1795.26 32.22 1795.13 32.56Q1795 32.9 1794.91 33.14L1794.82 33.14Q1794.71 32.83 1794.56 32.5Q1794.41 32.15 1794.3 31.93L1789.92 23.28L1787.74 23.28L1793.79 34.97Q1793.18 36.31 1792.46 36.84Q1791.75 37.37 1790.51 37.37Q1789.96 37.37 1789.45 37.25Q1788.95 37.13 1788.51 36.93L1788.51 38.89Q1788.95 39.04 1789.49 39.12Q1790.03 39.22 1790.65 39.22Q1792.14 39.22 1793.11 38.7Q1794.08 38.18 1794.79 37.14ZM1811.59 39L1813.57 39L1813.57 23.28L1804.97 23.28Q1804.66 25.73 1804.36 27.89Q1804.06 30.04 1803.81 31.66Q1803.56 33.27 1803.38 34.11Q1803.23 34.9 1803.01 35.71Q1802.79 36.51 1802.4 37.05Q1802.21 37.32 1801.95 37.45Q1801.69 37.59 1801.36 37.59Q1801.01 37.59 1800.7 37.51Q1800.39 37.43 1800.15 37.32L1800.15 38.97Q1800.43 39.08 1800.82 39.16Q1801.21 39.24 1801.58 39.24Q1802.7 39.24 1803.39 38.71Q1804.08 38.18 1804.5 37.15Q1804.92 36.11 1805.21 34.64Q1805.45 33.5 1805.69 31.87Q1805.93 30.24 1806.17 28.45Q1806.42 26.65 1806.61 25.02L1811.59 25.02L1811.59 39ZM1832.4 39L1836.47 32.49L1839.55 32.49L1839.55 39L1841.53 39L1841.53 23.28L1837.13 23.28Q1834.2 23.28 1832.73 24.42Q1832.25 24.78 1831.93 25.26Q1831.26 26.24 1831.26 27.69Q1831.26 29.07 1831.72 29.96Q1832.15 30.77 1832.81 31.26Q1832.86 31.3 1832.91 31.34Q1833.48 31.73 1834.1 31.99Q1834.29 32.06 1834.49 32.13L1830.09 39L1832.4 39ZM1867.01 25.05L1867.01 23.28L1858.14 23.28L1858.14 39L1860.12 39L1860.12 25.05L1867.01 25.05ZM1900.31 23.28L1900.31 39L1902.3 39L1902.3 25.02L1910.15 25.02L1910.15 39L1912.11 39L1912.11 23.28L1900.31 23.28ZM1943.72 37.23L1943.72 23.28L1936.46 23.28Q1936.37 25.02 1936.02 26.89Q1935.67 28.76 1935.12 30.63Q1934.57 32.49 1933.85 34.18Q1933.14 35.87 1932.35 37.23L1931.14 37.23L1931.14 43.13L1933.03 43.13L1933.03 39L1943.83 39L1943.83 43.13L1945.72 43.13L1945.72 37.23L1943.72 37.23ZM1968.59 23.28L1968.59 39L1970.57 39L1970.57 25.02L1978.42 25.02L1978.42 39L1980.38 39L1980.38 23.28L1968.59 23.28ZM1993.32 24.5Q1991.91 23.28 1988.83 23.28L1984.67 23.28L1984.67 39L1986.65 39L1986.65 32.88L1988.45 32.88Q1990.81 32.88 1992.18 32.17Q1993.51 31.49 1994.1 30.41Q1994.12 30.37 1994.14 30.34Q1994.39 29.84 1994.54 29.32Q1994.72 28.64 1994.72 27.91Q1994.72 26.29 1993.96 25.2Q1993.68 24.82 1993.32 24.5ZM1999.85 23.28L1998 23.28L1998 39L2000.2 39L2008.87 25.93L2008.96 25.93Q2008.93 26.25 2008.89 27.03Q2008.85 27.8 2008.81 28.72Q2008.78 29.64 2008.78 30.46L2008.78 39L2010.63 39L2010.63 23.28L2008.43 23.28L1999.78 36.29L1999.7 36.29Q1999.74 35.94 1999.77 35.19Q1999.8 34.44 1999.83 33.54Q1999.85 32.64 1999.85 31.91L1999.85 23.28ZM2029.44 39L2033.51 32.49L2036.59 32.49L2036.59 39L2038.57 39L2038.57 23.28L2034.17 23.28Q2031.24 23.28 2029.77 24.42Q2029.29 24.78 2028.97 25.26Q2028.29 26.24 2028.29 27.69Q2028.29 29.07 2028.76 29.96Q2029.18 30.77 2029.85 31.26Q2029.9 31.3 2029.95 31.34Q2030.52 31.73 2031.14 31.99Q2031.33 32.06 2031.53 32.13L2027.13 39L2029.44 39ZM2040.95 23.28L2047.04 30.92L2040.72 39L2042.99 39L2049.14 31.03L2049.14 39L2051.04 39L2051.04 31.03L2057.18 39L2059.45 39L2053.14 30.9L2059.25 23.28L2057.05 23.28L2051.04 30.9L2051.04 23.28L2049.14 23.28L2049.14 30.9L2043.15 23.28L2040.95 23.28ZM2071.65 39L2073.63 39L2073.63 23.28L2071.65 23.28L2071.65 29.93L2063.61 29.93L2063.61 23.28L2061.62 23.28L2061.62 39L2063.61 39L2063.61 31.67L2071.65 31.67L2071.65 39ZM2077.93 23.28L2077.93 39L2082.57 39Q2085.47 39 2086.8 37.73Q2087.22 37.33 2087.51 36.86Q2088.13 35.81 2088.13 34.4Q2088.13 33.3 2087.72 32.39Q2087.65 32.26 2087.59 32.13Q2087.57 32.09 2087.55 32.06Q2087.01 31.1 2085.79 30.52Q2084.53 29.93 2082.33 29.93L2079.9 29.93L2079.9 23.28L2077.93 23.28ZM2090.55 23.28L2090.55 39L2092.54 39L2092.54 23.28L2090.55 23.28ZM2096.8 39L2105.58 39L2105.58 37.25L2098.78 37.25L2098.78 31.65L2105.19 31.65L2105.19 29.93L2098.78 29.93L2098.78 25.02L2105.58 25.02L2105.58 23.28L2096.8 23.28L2096.8 39ZM2156.12 39L2164.89 39L2164.89 37.25L2158.1 37.25L2158.1 31.65L2164.5 31.65L2164.5 29.93L2158.1 29.93L2158.1 25.02L2164.89 25.02L2164.89 23.28L2156.12 23.28L2156.12 39ZM2178.93 37.23L2178.93 23.28L2171.68 23.28Q2171.58 25.02 2171.23 26.89Q2170.87 28.76 2170.33 30.63Q2169.79 32.49 2169.07 34.18Q2168.35 35.87 2167.56 37.23L2166.35 37.23L2166.35 43.13L2168.24 43.13L2168.24 39L2179.05 39L2179.05 43.13L2180.94 43.13L2180.94 37.23L2178.93 37.23ZM2199.06 39L2201.04 39L2201.04 25.02L2205.93 25.02L2205.93 23.28L2194.15 23.28L2194.15 25.02L2199.06 25.02L2199.06 39ZM2208.3 39L2217.08 39L2217.08 37.25L2210.29 37.25L2210.29 31.65L2216.69 31.65L2216.69 29.93L2210.29 29.93L2210.29 25.02L2217.08 25.02L2217.08 23.28L2208.3 23.28L2208.3 39ZM2229.86 39L2231.85 39L2231.85 23.28L2223.24 23.28Q2222.94 25.73 2222.63 27.89Q2222.34 30.04 2222.09 31.66Q2221.84 33.27 2221.65 34.11Q2221.51 34.9 2221.29 35.71Q2221.07 36.51 2220.68 37.05Q2220.49 37.32 2220.22 37.45Q2219.96 37.59 2219.62 37.59Q2219.28 37.59 2218.97 37.51Q2218.67 37.43 2218.42 37.32L2218.42 38.97Q2218.71 39.08 2219.1 39.16Q2219.48 39.24 2219.85 39.24Q2220.98 39.24 2221.67 38.71Q2222.36 38.18 2222.78 37.15Q2223.2 36.11 2223.48 34.64Q2223.73 33.5 2223.97 31.87Q2224.21 30.24 2224.45 28.45Q2224.69 26.65 2224.88 25.02L2229.86 25.02L2229.86 39ZM2237.98 23.28L2236.12 23.28L2236.12 39L2238.33 39L2247 25.93L2247.09 25.93Q2247.07 26.25 2247.03 27.03Q2246.98 27.8 2246.94 28.72Q2246.9 29.64 2246.9 30.46L2246.9 39L2248.77 39L2248.77 23.28L2246.56 23.28L2237.92 36.29L2237.83 36.29Q2237.87 35.94 2237.9 35.19Q2237.94 34.44 2237.96 33.54Q2237.98 32.64 2237.98 31.91L2237.98 23.28ZM1758.7 35.79Q1757.45 34.09 1757.45 31.12Q1757.45 28.15 1758.71 26.47Q1758.99 26.09 1759.35 25.8Q1760.57 24.78 1762.64 24.78Q1764.71 24.78 1765.91 25.8Q1766.26 26.09 1766.53 26.47Q1767.76 28.15 1767.76 31.12Q1767.76 34.09 1766.53 35.79Q1766.25 36.17 1765.91 36.47Q1764.7 37.5 1762.62 37.5Q1760.57 37.5 1759.36 36.49Q1758.99 36.19 1758.7 35.79ZM1871.78 35.79Q1870.53 34.09 1870.53 31.12Q1870.53 28.15 1871.79 26.47Q1872.07 26.09 1872.43 25.8Q1873.65 24.78 1875.72 24.78Q1877.79 24.78 1878.99 25.8Q1879.34 26.09 1879.61 26.47Q1880.85 28.15 1880.85 31.12Q1880.85 34.09 1879.61 35.79Q1879.34 36.17 1878.99 36.47Q1877.78 37.5 1875.7 37.5Q1873.65 37.5 1872.44 36.49Q1872.07 36.19 1871.78 35.79ZM1918.95 35.79Q1917.7 34.09 1917.7 31.12Q1917.7 28.15 1918.96 26.47Q1919.24 26.09 1919.6 25.8Q1920.82 24.78 1922.89 24.78Q1924.96 24.78 1926.16 25.8Q1926.51 26.09 1926.78 26.47Q1928.01 28.15 1928.01 31.12Q1928.01 34.09 1926.78 35.79Q1926.5 36.17 1926.16 36.47Q1924.95 37.5 1922.87 37.5Q1920.82 37.5 1919.61 36.49Q1919.24 36.19 1918.95 35.79ZM1744.82 24.98L1746.82 24.98Q1748.91 24.98 1749.88 25.73Q1750.1 25.9 1750.28 26.12Q1750.84 26.83 1750.84 28Q1750.84 29.37 1750.16 30.11Q1749.98 30.31 1749.74 30.46Q1748.65 31.19 1746.4 31.19L1744.82 31.19L1744.82 24.98ZM1834.3 25.63Q1835.3 24.98 1837.17 24.98L1839.55 24.98L1839.55 30.81L1837.26 30.81Q1835.24 30.81 1834.27 30.02Q1833.98 29.78 1833.77 29.48Q1833.3 28.79 1833.3 27.77Q1833.3 26.67 1833.84 26.03Q1834.04 25.8 1834.3 25.63ZM1986.65 24.98L1988.65 24.98Q1990.74 24.98 1991.71 25.73Q1991.93 25.9 1992.11 26.12Q1992.68 26.83 1992.68 28Q1992.68 29.37 1991.99 30.11Q1991.81 30.31 1991.58 30.46Q1990.48 31.19 1988.23 31.19L1986.65 31.19L1986.65 24.98ZM2031.34 25.63Q2032.34 24.98 2034.21 24.98L2036.59 24.98L2036.59 30.81L2034.3 30.81Q2032.28 30.81 2031.31 30.02Q2031.01 29.78 2030.81 29.48Q2030.34 28.79 2030.34 27.77Q2030.34 26.67 2030.88 26.03Q2031.08 25.8 2031.34 25.63ZM1713.84 27.95Q1714.19 26.35 1714.27 25.07L1717.84 25.07L1717.84 37.23L1710.51 37.23Q1711.22 36.05 1711.85 34.49Q1712.48 32.93 1712.99 31.24Q1713.51 29.56 1713.84 27.95ZM1937.77 27.95Q1938.11 26.35 1938.2 25.07L1941.76 25.07L1941.76 37.23L1934.44 37.23Q1935.14 36.05 1935.77 34.49Q1936.4 32.93 1936.91 31.24Q1937.43 29.56 1937.77 27.95ZM2172.98 27.95Q2173.32 26.35 2173.4 25.07L2176.98 25.07L2176.98 37.23L2169.64 37.23Q2170.35 36.05 2170.98 34.49Q2171.61 32.93 2172.12 31.24Q2172.63 29.56 2172.98 27.95ZM1953.73 26.99Q1953.89 27.45 1953.95 27.62L1955.71 32.37L1950.74 32.37L1952.52 27.62Q1952.65 27.25 1952.85 26.6Q1953.05 25.95 1953.21 25.27Q1953.29 25.53 1953.43 26.03Q1953.58 26.52 1953.73 26.99ZM2133.55 26.99Q2133.71 27.45 2133.77 27.62L2135.53 32.37L2130.56 32.37L2132.34 27.62Q2132.47 27.25 2132.67 26.6Q2132.87 25.95 2133.02 25.27Q2133.11 25.53 2133.25 26.03Q2133.38 26.52 2133.55 26.99ZM2188.95 26.99Q2189.1 27.45 2189.17 27.62L2190.92 32.37L2185.95 32.37L2187.74 27.62Q2187.87 27.25 2188.06 26.6Q2188.26 25.95 2188.42 25.27Q2188.51 25.53 2188.64 26.03Q2188.79 26.52 2188.95 26.99ZM2085.19 36.6Q2084.29 37.32 2082.38 37.32L2079.9 37.32L2079.9 31.67L2082.11 31.67Q2084.12 31.67 2085.11 32.28Q2085.33 32.41 2085.5 32.6Q2086.09 33.22 2086.09 34.4Q2086.09 35.57 2085.51 36.28Q2085.37 36.45 2085.19 36.6ZM2255.34 37.71C2255.34 38.48 2254.71 39.12 2253.94 39.12C2253.15 39.12 2252.53 38.48 2252.53 37.71C2252.53 36.94 2253.15 36.31 2253.94 36.31C2254.71 36.31 2255.34 36.94 2255.34 37.71ZM1846.1 36.81L1848.1 36.81L1847.98 37.65C1847.71 39.43 1846.91 41.84 1846.54 42.9L1845.13 42.9C1845.33 41.91 1845.78 39.8 1846.01 37.68L1846.1 36.81Z" fill="#FFFFFF" fill-opacity="1.000000" fill-rule="evenodd"/>
	<circle id="Ellipse 11" cx="2320.000000" cy="30.000000" r="3.000000" fill="#FFFFFF" fill-opacity="1.000000"/>
</svg>
